<svg id="svg" version="1.1" xmlns="http://www.w3.org/2000/svg" xmlns:xlink="http://www.w3.org/1999/xlink" width="400" height="400" viewBox="0, 0, 400,400"><g id="svgg"><path id="path1" d="M0.000 200.000 L 0.000 400.000 200.000 400.000 L 400.000 400.000 400.000 200.000 L 400.000 0.000 200.000 0.000 L 0.000 0.000 0.000 200.000 M351.958 200.042 L 352.000 398.333 200.000 398.333 L 48.000 398.333 48.000 200.111 C 48.000 91.089,48.050 1.839,48.111 1.778 C 48.172 1.717,116.554 1.685,200.070 1.708 L 351.917 1.750 351.958 200.042 M52.500 227.083 L 52.500 393.667 200.000 393.667 L 347.500 393.667 347.500 227.083 L 347.500 60.500 200.000 60.500 L 52.500 60.500 52.500 227.083 M286.574 95.318 C 286.625 95.401,286.816 97.333,286.997 99.610 C 287.529 106.290,287.625 107.453,288.763 121.000 C 289.687 132.016,291.439 153.422,291.749 157.500 C 291.801 158.188,291.886 159.031,291.937 159.375 L 292.029 160.000 288.462 160.000 L 284.894 160.000 284.613 157.425 C 283.047 143.076,278.007 130.722,270.860 123.718 C 258.957 112.052,241.912 108.580,204.333 110.165 C 202.362 110.248,189.350 110.360,175.417 110.412 C 161.483 110.465,148.875 110.552,147.399 110.604 L 144.714 110.700 167.391 139.058 C 179.863 154.655,198.605 178.092,209.041 191.140 C 225.564 211.797,227.989 214.899,227.804 215.140 C 227.554 215.467,223.790 220.032,221.407 222.900 C 220.485 224.009,216.664 228.629,212.916 233.167 C 209.167 237.704,205.382 242.279,204.503 243.333 C 202.657 245.548,200.664 247.954,197.463 251.833 C 195.291 254.465,188.459 262.721,185.257 266.583 C 180.140 272.757,178.622 274.589,176.159 277.569 C 169.727 285.354,165.614 290.323,161.734 295.000 C 160.631 296.329,158.334 299.104,156.630 301.167 C 147.230 312.541,143.537 317.000,137.698 324.029 C 136.581 325.374,135.667 326.518,135.667 326.571 C 135.667 326.749,243.262 326.677,246.086 326.497 C 268.951 325.039,280.733 317.700,289.828 299.250 C 291.729 295.392,291.831 295.165,295.340 286.833 C 296.556 283.946,297.616 281.511,297.695 281.423 C 297.816 281.287,300.827 281.936,303.625 282.701 C 304.360 282.902,304.460 282.212,301.331 298.417 C 300.121 304.679,299.761 306.600,299.083 310.417 C 298.953 311.150,298.471 313.850,298.014 316.417 C 295.346 331.376,293.930 341.625,292.573 355.792 L 292.473 356.833 287.362 356.834 C 284.550 356.834,247.262 357.017,204.500 357.240 C 161.737 357.463,119.625 357.669,110.917 357.698 L 95.083 357.750 95.120 356.333 C 95.141 355.554,95.204 353.823,95.261 352.487 L 95.365 350.058 99.199 345.487 C 103.993 339.773,106.583 336.688,108.912 333.917 C 109.914 332.725,111.711 330.587,112.905 329.167 C 114.099 327.746,116.056 325.421,117.254 324.000 C 118.452 322.579,120.403 320.257,121.591 318.839 C 126.184 313.356,127.310 312.015,129.011 310.000 C 129.978 308.854,132.785 305.517,135.250 302.583 C 137.715 299.650,140.489 296.350,141.415 295.250 C 145.605 290.270,147.483 288.034,148.333 287.012 C 148.837 286.407,152.587 281.943,156.667 277.094 C 160.746 272.245,164.721 267.514,165.500 266.581 C 166.869 264.942,169.183 262.186,172.845 257.833 C 173.809 256.688,176.615 253.350,179.081 250.417 C 181.547 247.483,184.322 244.183,185.246 243.083 C 186.171 241.983,188.311 239.433,190.002 237.417 C 191.692 235.400,193.959 232.704,195.038 231.425 C 197.340 228.698,197.205 229.148,196.118 227.824 C 195.633 227.233,190.097 220.338,183.816 212.500 C 177.536 204.662,170.230 195.550,167.582 192.250 C 164.934 188.950,159.309 181.938,155.083 176.667 C 146.156 165.533,137.185 154.349,130.082 145.500 C 127.324 142.063,121.099 134.300,116.250 128.250 C 111.400 122.200,104.993 114.212,102.011 110.500 L 96.589 103.750 96.473 102.500 C 96.409 101.813,96.352 99.881,96.345 98.208 L 96.333 95.167 191.407 95.167 C 248.227 95.167,286.518 95.228,286.574 95.318 " stroke="none" fill="#fbfbfb" fill-rule="evenodd"></path><path id="path2" d="M347.583 227.167 C 347.583 318.788,347.602 356.269,347.625 310.458 C 347.648 264.648,347.648 189.685,347.625 143.875 C 347.602 98.065,347.583 135.546,347.583 227.167 M215.544 109.786 C 215.797 109.825,216.172 109.824,216.377 109.784 C 216.582 109.744,216.375 109.713,215.917 109.714 C 215.458 109.716,215.291 109.748,215.544 109.786 M226.958 109.784 C 227.165 109.824,227.502 109.824,227.708 109.784 C 227.915 109.745,227.746 109.712,227.333 109.712 C 226.921 109.712,226.752 109.745,226.958 109.784 M209.542 109.948 C 209.702 109.990,209.965 109.990,210.125 109.948 C 210.285 109.906,210.154 109.872,209.833 109.872 C 209.512 109.872,209.381 109.906,209.542 109.948 M196.875 110.286 C 197.127 110.324,197.540 110.324,197.792 110.286 C 198.044 110.248,197.838 110.217,197.333 110.217 C 196.829 110.217,196.623 110.248,196.875 110.286 M161.292 110.457 C 162.048 110.488,163.285 110.488,164.042 110.457 C 164.798 110.426,164.179 110.401,162.667 110.401 C 161.154 110.401,160.535 110.426,161.292 110.457 M158.875 326.792 C 171.777 326.815,192.890 326.815,205.792 326.792 C 218.694 326.768,208.137 326.749,182.333 326.749 C 156.529 326.749,145.973 326.768,158.875 326.792 M240.711 326.786 C 240.964 326.825,241.339 326.824,241.544 326.784 C 241.749 326.744,241.542 326.713,241.083 326.714 C 240.625 326.716,240.457 326.748,240.711 326.786 M285.375 356.789 C 285.810 356.824,286.523 356.824,286.958 356.789 C 287.394 356.755,287.037 356.727,286.167 356.727 C 285.296 356.727,284.940 356.755,285.375 356.789 M255.625 356.957 C 256.198 356.989,257.135 356.989,257.708 356.957 C 258.281 356.924,257.813 356.898,256.667 356.898 C 255.521 356.898,255.052 356.924,255.625 356.957 M222.208 357.123 C 222.644 357.157,223.356 357.157,223.792 357.123 C 224.227 357.088,223.871 357.060,223.000 357.060 C 222.129 357.060,221.773 357.088,222.208 357.123 M190.882 357.290 C 191.504 357.323,192.479 357.322,193.049 357.290 C 193.618 357.257,193.108 357.231,191.917 357.231 C 190.725 357.232,190.259 357.258,190.882 357.290 M158.125 357.457 C 158.698 357.489,159.635 357.489,160.208 357.457 C 160.781 357.424,160.313 357.398,159.167 357.398 C 158.021 357.398,157.552 357.424,158.125 357.457 M125.383 357.624 C 126.190 357.655,127.465 357.655,128.217 357.624 C 128.968 357.593,128.308 357.568,126.750 357.568 C 125.192 357.568,124.577 357.594,125.383 357.624 M95.542 357.782 C 95.702 357.823,95.965 357.823,96.125 357.782 C 96.285 357.740,96.154 357.705,95.833 357.705 C 95.513 357.705,95.381 357.740,95.542 357.782 " stroke="none" fill="#848484" fill-rule="evenodd"></path><path id="path3" d="M103.083 1.791 C 251.336 1.904,351.961 1.904,351.891 1.792 C 351.848 1.723,283.474 1.685,199.948 1.708 C 116.423 1.731,72.833 1.768,103.083 1.791 M130.667 95.291 C 223.235 95.404,286.627 95.404,286.558 95.292 C 286.515 95.223,243.679 95.185,191.365 95.208 C 139.052 95.231,111.737 95.268,130.667 95.291 M286.705 97.000 C 286.705 97.321,286.740 97.452,286.782 97.292 C 286.823 97.131,286.823 96.869,286.782 96.708 C 286.740 96.548,286.705 96.679,286.705 97.000 M286.872 99.000 C 286.872 99.321,286.906 99.452,286.948 99.292 C 286.990 99.131,286.990 98.869,286.948 98.708 C 286.906 98.548,286.872 98.679,286.872 99.000 M96.390 100.417 C 96.391 101.150,96.420 101.429,96.456 101.037 C 96.491 100.645,96.490 100.045,96.454 99.704 C 96.419 99.363,96.390 99.683,96.390 100.417 M287.039 101.167 C 287.039 101.487,287.073 101.619,287.115 101.458 C 287.157 101.298,287.157 101.035,287.115 100.875 C 287.073 100.715,287.039 100.846,287.039 101.167 M287.372 105.167 C 287.372 105.487,287.406 105.619,287.448 105.458 C 287.490 105.298,287.490 105.035,287.448 104.875 C 287.406 104.715,287.372 104.846,287.372 105.167 M219.125 109.791 C 220.523 109.819,222.810 109.819,224.208 109.791 C 225.606 109.763,224.463 109.741,221.667 109.741 C 218.871 109.741,217.727 109.763,219.125 109.791 M210.958 109.955 C 211.348 109.990,211.985 109.990,212.375 109.955 C 212.765 109.920,212.446 109.892,211.667 109.892 C 210.887 109.892,210.569 109.920,210.958 109.955 M230.044 109.953 C 230.297 109.991,230.672 109.990,230.877 109.951 C 231.082 109.911,230.875 109.880,230.417 109.881 C 229.958 109.882,229.791 109.915,230.044 109.953 M205.129 110.122 C 205.521 110.157,206.121 110.157,206.463 110.121 C 206.804 110.085,206.483 110.057,205.750 110.057 C 205.017 110.058,204.737 110.087,205.129 110.122 M233.294 110.118 C 233.501 110.158,233.801 110.156,233.960 110.115 C 234.120 110.073,233.950 110.040,233.583 110.042 C 233.217 110.044,233.086 110.078,233.294 110.118 M199.048 110.290 C 199.578 110.323,200.403 110.323,200.881 110.289 C 201.359 110.256,200.925 110.229,199.917 110.229 C 198.908 110.229,198.517 110.257,199.048 110.290 M235.542 110.282 C 235.702 110.323,235.965 110.323,236.125 110.282 C 236.285 110.240,236.154 110.205,235.833 110.205 C 235.512 110.205,235.381 110.240,235.542 110.282 M170.720 110.458 C 173.729 110.484,178.604 110.484,181.554 110.458 C 184.503 110.433,182.042 110.412,176.083 110.412 C 170.125 110.412,167.712 110.433,170.720 110.458 M145.292 110.622 C 145.681 110.657,146.319 110.657,146.708 110.622 C 147.098 110.587,146.779 110.558,146.000 110.558 C 145.221 110.558,144.902 110.587,145.292 110.622 M269.917 122.833 C 270.275 123.200,270.605 123.500,270.651 123.500 C 270.697 123.500,270.441 123.200,270.083 122.833 C 269.725 122.467,269.395 122.167,269.349 122.167 C 269.303 122.167,269.559 122.467,269.917 122.833 M290.205 139.333 C 290.205 139.654,290.240 139.785,290.282 139.625 C 290.323 139.465,290.323 139.202,290.282 139.042 C 290.240 138.881,290.205 139.012,290.205 139.333 M290.372 141.333 C 290.372 141.654,290.406 141.785,290.448 141.625 C 290.490 141.465,290.490 141.202,290.448 141.042 C 290.406 140.881,290.372 141.012,290.372 141.333 M290.539 143.333 C 290.539 143.654,290.573 143.785,290.615 143.625 C 290.657 143.465,290.657 143.202,290.615 143.042 C 290.573 142.881,290.539 143.012,290.539 143.333 M290.705 145.500 C 290.705 145.821,290.740 145.952,290.782 145.792 C 290.823 145.631,290.823 145.369,290.782 145.208 C 290.740 145.048,290.705 145.179,290.705 145.500 M291.039 149.500 C 291.039 149.821,291.073 149.952,291.115 149.792 C 291.157 149.631,291.157 149.369,291.115 149.208 C 291.073 149.048,291.039 149.179,291.039 149.500 M291.539 155.667 C 291.539 155.987,291.573 156.119,291.615 155.958 C 291.657 155.798,291.657 155.535,291.615 155.375 C 291.573 155.215,291.539 155.346,291.539 155.667 M278.406 315.208 L 277.917 315.750 278.458 315.260 C 278.963 314.804,279.077 314.667,278.948 314.667 C 278.919 314.667,278.675 314.910,278.406 315.208 M247.542 326.448 C 247.702 326.490,247.965 326.490,248.125 326.448 C 248.285 326.406,248.154 326.372,247.833 326.372 C 247.512 326.372,247.381 326.406,247.542 326.448 M244.794 326.618 C 245.001 326.658,245.301 326.656,245.460 326.615 C 245.620 326.573,245.450 326.540,245.083 326.542 C 244.717 326.544,244.586 326.578,244.794 326.618 M231.864 326.791 C 233.394 326.819,235.944 326.819,237.531 326.791 C 239.118 326.764,237.867 326.742,234.750 326.741 C 231.633 326.741,230.335 326.764,231.864 326.791 M95.212 353.000 C 95.212 353.412,95.245 353.581,95.284 353.375 C 95.324 353.169,95.324 352.831,95.284 352.625 C 95.245 352.419,95.212 352.587,95.212 353.000 M95.000 357.073 C 95.000 357.389,95.058 357.683,95.128 357.726 C 95.199 357.770,95.228 357.512,95.194 357.153 C 95.117 356.347,95.000 356.299,95.000 357.073 M288.883 356.791 C 289.597 356.822,290.722 356.822,291.383 356.790 C 292.043 356.759,291.458 356.733,290.083 356.733 C 288.708 356.734,288.168 356.759,288.883 356.791 M261.042 356.958 C 262.394 356.986,264.606 356.986,265.958 356.958 C 267.310 356.930,266.204 356.907,263.500 356.907 C 260.796 356.907,259.690 356.930,261.042 356.958 M227.542 357.125 C 229.260 357.152,232.073 357.152,233.792 357.125 C 235.510 357.098,234.104 357.076,230.667 357.076 C 227.229 357.076,225.823 357.098,227.542 357.125 M196.708 357.291 C 198.244 357.319,200.756 357.319,202.292 357.291 C 203.827 357.264,202.571 357.241,199.500 357.241 C 196.429 357.241,195.173 357.264,196.708 357.291 M164.208 357.458 C 165.927 357.485,168.740 357.485,170.458 357.458 C 172.177 357.431,170.771 357.409,167.333 357.409 C 163.896 357.409,162.490 357.431,164.208 357.458 M132.542 357.625 C 134.260 357.652,137.073 357.652,138.792 357.625 C 140.510 357.598,139.104 357.576,135.667 357.576 C 132.229 357.576,130.823 357.598,132.542 357.625 M99.469 357.791 C 101.240 357.819,104.090 357.818,105.803 357.791 C 107.515 357.764,106.067 357.742,102.583 357.742 C 99.100 357.742,97.699 357.764,99.469 357.791 M126.208 393.792 C 166.794 393.815,233.206 393.815,273.792 393.792 C 314.377 393.769,281.171 393.750,200.000 393.750 C 118.829 393.750,85.623 393.769,126.208 393.792 M123.958 398.292 C 165.781 398.315,234.219 398.315,276.042 398.292 C 317.865 398.269,283.646 398.250,200.000 398.250 C 116.354 398.250,82.135 398.269,123.958 398.292 " stroke="none" fill="#a1a1a1" fill-rule="evenodd"></path><path id="path4" d="M199.958 1.958 L 351.832 2.000 351.875 28.167 L 351.918 54.333 351.917 28.125 L 351.917 1.917 200.000 1.917 L 48.083 1.916 199.958 1.958 M52.416 227.167 C 52.416 318.879,52.435 356.398,52.458 310.542 C 52.481 264.685,52.481 189.648,52.458 143.792 C 52.435 97.935,52.416 135.454,52.416 227.167 M96.383 97.667 C 96.383 98.171,96.415 98.377,96.453 98.125 C 96.491 97.873,96.491 97.460,96.453 97.208 C 96.415 96.956,96.383 97.162,96.383 97.667 M212.797 109.790 C 213.282 109.824,214.032 109.823,214.464 109.789 C 214.896 109.755,214.500 109.727,213.583 109.728 C 212.667 109.728,212.313 109.756,212.797 109.790 M228.455 109.787 C 228.750 109.824,229.275 109.824,229.621 109.788 C 229.967 109.752,229.725 109.722,229.083 109.721 C 228.442 109.721,228.159 109.750,228.455 109.787 M207.292 109.955 C 207.681 109.990,208.319 109.990,208.708 109.955 C 209.098 109.920,208.779 109.892,208.000 109.892 C 207.221 109.892,206.902 109.920,207.292 109.955 M232.211 109.953 C 232.464 109.991,232.839 109.990,233.044 109.951 C 233.249 109.911,233.042 109.880,232.583 109.881 C 232.125 109.882,231.957 109.915,232.211 109.953 M201.625 110.122 C 202.015 110.157,202.652 110.157,203.042 110.122 C 203.431 110.087,203.112 110.058,202.333 110.058 C 201.554 110.058,201.235 110.087,201.625 110.122 M183.887 110.292 C 186.253 110.318,190.078 110.318,192.387 110.292 C 194.695 110.265,192.758 110.244,188.083 110.244 C 183.408 110.244,181.520 110.265,183.887 110.292 M148.458 110.458 C 150.590 110.485,154.077 110.485,156.208 110.458 C 158.340 110.432,156.596 110.410,152.333 110.410 C 148.071 110.410,146.327 110.432,148.458 110.458 M270.833 123.583 C 271.424 124.179,271.945 124.667,271.990 124.667 C 272.036 124.667,271.591 124.179,271.000 123.583 C 270.409 122.987,269.889 122.500,269.843 122.500 C 269.797 122.500,270.243 122.987,270.833 123.583 M288.872 124.167 C 288.872 124.487,288.906 124.619,288.948 124.458 C 288.990 124.298,288.990 124.035,288.948 123.875 C 288.906 123.715,288.872 123.846,288.872 124.167 M289.205 128.333 C 289.205 128.654,289.240 128.785,289.282 128.625 C 289.323 128.465,289.323 128.202,289.282 128.042 C 289.240 127.881,289.205 128.012,289.205 128.333 M289.372 130.333 C 289.372 130.654,289.406 130.785,289.448 130.625 C 289.490 130.465,289.490 130.202,289.448 130.042 C 289.406 129.881,289.372 130.012,289.372 130.333 M289.542 132.417 C 289.544 132.783,289.578 132.914,289.618 132.706 C 289.658 132.499,289.656 132.199,289.615 132.040 C 289.573 131.880,289.540 132.050,289.542 132.417 M289.705 134.500 C 289.705 134.821,289.740 134.952,289.782 134.792 C 289.823 134.631,289.823 134.369,289.782 134.208 C 289.740 134.048,289.705 134.179,289.705 134.500 M289.872 136.500 C 289.872 136.821,289.906 136.952,289.948 136.792 C 289.990 136.631,289.990 136.369,289.948 136.208 C 289.906 136.048,289.872 136.179,289.872 136.500 M290.039 138.500 C 290.039 138.821,290.073 138.952,290.115 138.792 C 290.157 138.631,290.157 138.369,290.115 138.208 C 290.073 138.048,290.039 138.179,290.039 138.500 M290.205 140.667 C 290.205 140.987,290.240 141.119,290.282 140.958 C 290.323 140.798,290.323 140.535,290.282 140.375 C 290.240 140.215,290.205 140.346,290.205 140.667 M290.539 144.667 C 290.539 144.987,290.573 145.119,290.615 144.958 C 290.657 144.798,290.657 144.535,290.615 144.375 C 290.573 144.215,290.539 144.346,290.539 144.667 M279.830 313.958 L 278.250 315.583 279.875 314.003 C 281.384 312.536,281.576 312.333,281.455 312.333 C 281.430 312.333,280.699 313.065,279.830 313.958 M248.960 326.451 C 249.168 326.491,249.468 326.490,249.627 326.448 C 249.786 326.406,249.617 326.374,249.250 326.375 C 248.883 326.377,248.753 326.411,248.960 326.451 M246.458 326.618 C 246.665 326.657,247.002 326.657,247.208 326.618 C 247.415 326.578,247.246 326.545,246.833 326.545 C 246.421 326.545,246.252 326.578,246.458 326.618 M242.463 326.789 C 242.855 326.824,243.455 326.824,243.796 326.788 C 244.137 326.752,243.817 326.723,243.083 326.724 C 242.350 326.724,242.071 326.754,242.463 326.789 M95.375 350.917 C 95.377 351.283,95.411 351.414,95.451 351.206 C 95.491 350.999,95.490 350.699,95.448 350.540 C 95.406 350.380,95.374 350.550,95.375 350.917 M95.220 355.167 C 95.220 355.762,95.250 356.006,95.287 355.708 C 95.324 355.410,95.324 354.923,95.287 354.625 C 95.250 354.327,95.220 354.571,95.220 355.167 M277.552 356.791 C 278.910 356.819,281.085 356.819,282.385 356.791 C 283.686 356.763,282.575 356.740,279.917 356.740 C 277.258 356.740,276.194 356.763,277.552 356.791 M243.303 356.958 C 245.441 356.985,248.891 356.985,250.970 356.958 C 253.049 356.932,251.300 356.910,247.083 356.910 C 242.867 356.910,241.166 356.932,243.303 356.958 M213.386 357.125 C 214.927 357.152,217.402 357.152,218.886 357.125 C 220.369 357.097,219.108 357.075,216.083 357.075 C 213.058 357.075,211.844 357.097,213.386 357.125 M176.363 357.292 C 178.809 357.317,182.859 357.318,185.363 357.292 C 187.868 357.266,185.867 357.244,180.917 357.244 C 175.967 357.244,173.918 357.266,176.363 357.292 M147.803 357.458 C 149.573 357.485,152.423 357.485,154.136 357.458 C 155.849 357.431,154.400 357.409,150.917 357.409 C 147.433 357.409,146.032 357.431,147.803 357.458 M111.637 357.625 C 113.958 357.651,117.708 357.651,119.970 357.625 C 122.232 357.599,120.333 357.577,115.750 357.577 C 111.167 357.577,109.316 357.599,111.637 357.625 " stroke="none" fill="#747474" fill-rule="evenodd"></path><path id="path0" d="M48.042 200.042 L 48.083 398.083 200.000 398.083 L 351.917 398.083 351.969 252.417 C 351.997 172.300,351.969 83.181,351.906 54.375 L 351.792 2.000 199.896 2.000 L 48.000 2.000 48.042 200.042 M347.667 227.167 L 347.667 393.833 200.000 393.833 L 52.333 393.833 52.333 227.167 L 52.333 60.500 200.000 60.500 L 347.667 60.500 347.667 227.167 M96.391 96.458 C 96.450 97.077,96.498 98.870,96.499 100.442 L 96.500 103.300 97.252 104.275 C 98.482 105.871,100.046 107.830,107.826 117.521 C 111.901 122.597,117.342 129.375,119.918 132.583 C 122.493 135.792,127.938 142.579,132.017 147.667 C 139.293 156.740,146.015 165.120,158.821 181.083 C 162.351 185.483,168.877 193.621,173.323 199.167 C 177.769 204.713,184.954 213.674,189.289 219.082 C 193.625 224.489,197.138 229.001,197.097 229.109 C 197.056 229.216,195.234 231.429,193.048 234.027 C 190.862 236.625,188.068 239.950,186.839 241.417 C 185.610 242.883,183.844 244.983,182.915 246.083 C 181.296 248.001,171.042 260.204,166.675 265.411 C 163.478 269.223,155.575 278.627,146.976 288.853 C 145.179 290.990,142.289 294.430,138.663 298.750 C 137.509 300.125,134.767 303.387,132.569 306.000 C 130.372 308.612,127.786 311.688,126.824 312.833 C 125.861 313.979,124.253 315.892,123.251 317.083 C 122.249 318.275,120.265 320.637,118.843 322.333 C 116.364 325.291,106.676 336.817,103.014 341.167 C 97.623 347.571,96.213 349.250,95.866 349.681 C 95.529 350.100,94.945 357.334,95.226 357.615 C 95.250 357.639,109.328 357.586,126.510 357.497 C 143.692 357.408,172.825 357.261,191.250 357.169 C 278.987 356.736,292.244 356.645,292.347 356.477 C 292.405 356.384,292.503 355.582,292.564 354.695 C 293.463 341.629,297.176 318.382,303.483 286.333 C 304.057 283.417,304.095 283.071,303.853 282.963 C 303.317 282.725,297.986 281.489,297.852 281.572 C 297.696 281.668,296.440 284.530,294.665 288.833 C 283.240 316.525,272.127 325.182,246.107 326.664 C 243.091 326.836,135.333 326.919,135.333 326.750 C 135.333 326.680,177.779 275.323,180.170 272.500 C 180.597 271.996,184.911 266.783,189.758 260.917 C 194.604 255.050,199.814 248.750,201.335 246.917 C 202.856 245.083,206.456 240.733,209.335 237.250 C 214.513 230.985,217.947 226.840,224.089 219.442 C 225.827 217.348,227.380 215.464,227.540 215.256 C 227.832 214.873,225.240 211.479,215.001 198.833 C 205.644 187.278,144.507 110.624,144.568 110.525 C 144.614 110.450,156.787 110.338,171.618 110.277 C 190.432 110.200,201.102 110.086,206.917 109.900 C 242.450 108.767,257.405 111.730,269.647 122.329 C 277.715 129.313,283.332 142.748,284.928 158.875 L 285.039 160.000 288.436 160.000 C 290.305 160.000,291.833 159.944,291.832 159.875 C 291.832 159.806,291.570 156.675,291.250 152.917 C 290.421 143.174,289.773 135.324,289.000 125.667 C 288.629 121.037,288.142 115.075,287.916 112.417 C 286.924 100.712,286.500 95.647,286.500 95.496 C 286.500 95.390,253.040 95.333,191.393 95.333 L 96.285 95.333 96.391 96.458 " stroke="none" fill="#040404" fill-rule="evenodd"></path><path id="path1" d="M0.000 200.000 L 0.000 400.000 200.000 400.000 L 400.000 400.000 400.000 200.000 L 400.000 0.000 200.000 0.000 L 0.000 0.000 0.000 200.000 M351.958 200.042 L 352.000 398.333 200.000 398.333 L 48.000 398.333 48.000 200.111 C 48.000 91.089,48.050 1.839,48.111 1.778 C 48.172 1.717,116.554 1.685,200.070 1.708 L 351.917 1.750 351.958 200.042 M52.500 227.083 L 52.500 393.667 200.000 393.667 L 347.500 393.667 347.500 227.083 L 347.500 60.500 200.000 60.500 L 52.500 60.500 52.500 227.083 M286.574 95.318 C 286.625 95.401,286.816 97.333,286.997 99.610 C 287.529 106.290,287.625 107.453,288.763 121.000 C 289.687 132.016,291.439 153.422,291.749 157.500 C 291.801 158.188,291.886 159.031,291.937 159.375 L 292.029 160.000 288.462 160.000 L 284.894 160.000 284.613 157.425 C 283.047 143.076,278.007 130.722,270.860 123.718 C 258.957 112.052,241.912 108.580,204.333 110.165 C 202.362 110.248,189.350 110.360,175.417 110.412 C 161.483 110.465,148.875 110.552,147.399 110.604 L 144.714 110.700 167.391 139.058 C 179.863 154.655,198.605 178.092,209.041 191.140 C 225.564 211.797,227.989 214.899,227.804 215.140 C 227.554 215.467,223.790 220.032,221.407 222.900 C 220.485 224.009,216.664 228.629,212.916 233.167 C 209.167 237.704,205.382 242.279,204.503 243.333 C 202.657 245.548,200.664 247.954,197.463 251.833 C 195.291 254.465,188.459 262.721,185.257 266.583 C 180.140 272.757,178.622 274.589,176.159 277.569 C 169.727 285.354,165.614 290.323,161.734 295.000 C 160.631 296.329,158.334 299.104,156.630 301.167 C 147.230 312.541,143.537 317.000,137.698 324.029 C 136.581 325.374,135.667 326.518,135.667 326.571 C 135.667 326.749,243.262 326.677,246.086 326.497 C 268.951 325.039,280.733 317.700,289.828 299.250 C 291.729 295.392,291.831 295.165,295.340 286.833 C 296.556 283.946,297.616 281.511,297.695 281.423 C 297.816 281.287,300.827 281.936,303.625 282.701 C 304.360 282.902,304.460 282.212,301.331 298.417 C 300.121 304.679,299.761 306.600,299.083 310.417 C 298.953 311.150,298.471 313.850,298.014 316.417 C 295.346 331.376,293.930 341.625,292.573 355.792 L 292.473 356.833 287.362 356.834 C 284.550 356.834,247.262 357.017,204.500 357.240 C 161.737 357.463,119.625 357.669,110.917 357.698 L 95.083 357.750 95.120 356.333 C 95.141 355.554,95.204 353.823,95.261 352.487 L 95.365 350.058 99.199 345.487 C 103.993 339.773,106.583 336.688,108.912 333.917 C 109.914 332.725,111.711 330.587,112.905 329.167 C 114.099 327.746,116.056 325.421,117.254 324.000 C 118.452 322.579,120.403 320.257,121.591 318.839 C 126.184 313.356,127.310 312.015,129.011 310.000 C 129.978 308.854,132.785 305.517,135.250 302.583 C 137.715 299.650,140.489 296.350,141.415 295.250 C 145.605 290.270,147.483 288.034,148.333 287.012 C 148.837 286.407,152.587 281.943,156.667 277.094 C 160.746 272.245,164.721 267.514,165.500 266.581 C 166.869 264.942,169.183 262.186,172.845 257.833 C 173.809 256.688,176.615 253.350,179.081 250.417 C 181.547 247.483,184.322 244.183,185.246 243.083 C 186.171 241.983,188.311 239.433,190.002 237.417 C 191.692 235.400,193.959 232.704,195.038 231.425 C 197.340 228.698,197.205 229.148,196.118 227.824 C 195.633 227.233,190.097 220.338,183.816 212.500 C 177.536 204.662,170.230 195.550,167.582 192.250 C 164.934 188.950,159.309 181.938,155.083 176.667 C 146.156 165.533,137.185 154.349,130.082 145.500 C 127.324 142.063,121.099 134.300,116.250 128.250 C 111.400 122.200,104.993 114.212,102.011 110.500 L 96.589 103.750 96.473 102.500 C 96.409 101.813,96.352 99.881,96.345 98.208 L 96.333 95.167 191.407 95.167 C 248.227 95.167,286.518 95.228,286.574 95.318 " stroke="none" fill="#fbfbfb" fill-rule="evenodd"></path><path id="path2" d="M347.583 227.167 C 347.583 318.788,347.602 356.269,347.625 310.458 C 347.648 264.648,347.648 189.685,347.625 143.875 C 347.602 98.065,347.583 135.546,347.583 227.167 M215.544 109.786 C 215.797 109.825,216.172 109.824,216.377 109.784 C 216.582 109.744,216.375 109.713,215.917 109.714 C 215.458 109.716,215.291 109.748,215.544 109.786 M226.958 109.784 C 227.165 109.824,227.502 109.824,227.708 109.784 C 227.915 109.745,227.746 109.712,227.333 109.712 C 226.921 109.712,226.752 109.745,226.958 109.784 M209.542 109.948 C 209.702 109.990,209.965 109.990,210.125 109.948 C 210.285 109.906,210.154 109.872,209.833 109.872 C 209.512 109.872,209.381 109.906,209.542 109.948 M196.875 110.286 C 197.127 110.324,197.540 110.324,197.792 110.286 C 198.044 110.248,197.838 110.217,197.333 110.217 C 196.829 110.217,196.623 110.248,196.875 110.286 M161.292 110.457 C 162.048 110.488,163.285 110.488,164.042 110.457 C 164.798 110.426,164.179 110.401,162.667 110.401 C 161.154 110.401,160.535 110.426,161.292 110.457 M158.875 326.792 C 171.777 326.815,192.890 326.815,205.792 326.792 C 218.694 326.768,208.137 326.749,182.333 326.749 C 156.529 326.749,145.973 326.768,158.875 326.792 M240.711 326.786 C 240.964 326.825,241.339 326.824,241.544 326.784 C 241.749 326.744,241.542 326.713,241.083 326.714 C 240.625 326.716,240.457 326.748,240.711 326.786 M285.375 356.789 C 285.810 356.824,286.523 356.824,286.958 356.789 C 287.394 356.755,287.037 356.727,286.167 356.727 C 285.296 356.727,284.940 356.755,285.375 356.789 M255.625 356.957 C 256.198 356.989,257.135 356.989,257.708 356.957 C 258.281 356.924,257.813 356.898,256.667 356.898 C 255.521 356.898,255.052 356.924,255.625 356.957 M222.208 357.123 C 222.644 357.157,223.356 357.157,223.792 357.123 C 224.227 357.088,223.871 357.060,223.000 357.060 C 222.129 357.060,221.773 357.088,222.208 357.123 M190.882 357.290 C 191.504 357.323,192.479 357.322,193.049 357.290 C 193.618 357.257,193.108 357.231,191.917 357.231 C 190.725 357.232,190.259 357.258,190.882 357.290 M158.125 357.457 C 158.698 357.489,159.635 357.489,160.208 357.457 C 160.781 357.424,160.313 357.398,159.167 357.398 C 158.021 357.398,157.552 357.424,158.125 357.457 M125.383 357.624 C 126.190 357.655,127.465 357.655,128.217 357.624 C 128.968 357.593,128.308 357.568,126.750 357.568 C 125.192 357.568,124.577 357.594,125.383 357.624 M95.542 357.782 C 95.702 357.823,95.965 357.823,96.125 357.782 C 96.285 357.740,96.154 357.705,95.833 357.705 C 95.513 357.705,95.381 357.740,95.542 357.782 " stroke="none" fill="#848484" fill-rule="evenodd"></path><path id="path3" d="M103.083 1.791 C 251.336 1.904,351.961 1.904,351.891 1.792 C 351.848 1.723,283.474 1.685,199.948 1.708 C 116.423 1.731,72.833 1.768,103.083 1.791 M130.667 95.291 C 223.235 95.404,286.627 95.404,286.558 95.292 C 286.515 95.223,243.679 95.185,191.365 95.208 C 139.052 95.231,111.737 95.268,130.667 95.291 M286.705 97.000 C 286.705 97.321,286.740 97.452,286.782 97.292 C 286.823 97.131,286.823 96.869,286.782 96.708 C 286.740 96.548,286.705 96.679,286.705 97.000 M286.872 99.000 C 286.872 99.321,286.906 99.452,286.948 99.292 C 286.990 99.131,286.990 98.869,286.948 98.708 C 286.906 98.548,286.872 98.679,286.872 99.000 M96.390 100.417 C 96.391 101.150,96.420 101.429,96.456 101.037 C 96.491 100.645,96.490 100.045,96.454 99.704 C 96.419 99.363,96.390 99.683,96.390 100.417 M287.039 101.167 C 287.039 101.487,287.073 101.619,287.115 101.458 C 287.157 101.298,287.157 101.035,287.115 100.875 C 287.073 100.715,287.039 100.846,287.039 101.167 M287.372 105.167 C 287.372 105.487,287.406 105.619,287.448 105.458 C 287.490 105.298,287.490 105.035,287.448 104.875 C 287.406 104.715,287.372 104.846,287.372 105.167 M219.125 109.791 C 220.523 109.819,222.810 109.819,224.208 109.791 C 225.606 109.763,224.463 109.741,221.667 109.741 C 218.871 109.741,217.727 109.763,219.125 109.791 M210.958 109.955 C 211.348 109.990,211.985 109.990,212.375 109.955 C 212.765 109.920,212.446 109.892,211.667 109.892 C 210.887 109.892,210.569 109.920,210.958 109.955 M230.044 109.953 C 230.297 109.991,230.672 109.990,230.877 109.951 C 231.082 109.911,230.875 109.880,230.417 109.881 C 229.958 109.882,229.791 109.915,230.044 109.953 M205.129 110.122 C 205.521 110.157,206.121 110.157,206.463 110.121 C 206.804 110.085,206.483 110.057,205.750 110.057 C 205.017 110.058,204.737 110.087,205.129 110.122 M233.294 110.118 C 233.501 110.158,233.801 110.156,233.960 110.115 C 234.120 110.073,233.950 110.040,233.583 110.042 C 233.217 110.044,233.086 110.078,233.294 110.118 M199.048 110.290 C 199.578 110.323,200.403 110.323,200.881 110.289 C 201.359 110.256,200.925 110.229,199.917 110.229 C 198.908 110.229,198.517 110.257,199.048 110.290 M235.542 110.282 C 235.702 110.323,235.965 110.323,236.125 110.282 C 236.285 110.240,236.154 110.205,235.833 110.205 C 235.512 110.205,235.381 110.240,235.542 110.282 M170.720 110.458 C 173.729 110.484,178.604 110.484,181.554 110.458 C 184.503 110.433,182.042 110.412,176.083 110.412 C 170.125 110.412,167.712 110.433,170.720 110.458 M145.292 110.622 C 145.681 110.657,146.319 110.657,146.708 110.622 C 147.098 110.587,146.779 110.558,146.000 110.558 C 145.221 110.558,144.902 110.587,145.292 110.622 M269.917 122.833 C 270.275 123.200,270.605 123.500,270.651 123.500 C 270.697 123.500,270.441 123.200,270.083 122.833 C 269.725 122.467,269.395 122.167,269.349 122.167 C 269.303 122.167,269.559 122.467,269.917 122.833 M290.205 139.333 C 290.205 139.654,290.240 139.785,290.282 139.625 C 290.323 139.465,290.323 139.202,290.282 139.042 C 290.240 138.881,290.205 139.012,290.205 139.333 M290.372 141.333 C 290.372 141.654,290.406 141.785,290.448 141.625 C 290.490 141.465,290.490 141.202,290.448 141.042 C 290.406 140.881,290.372 141.012,290.372 141.333 M290.539 143.333 C 290.539 143.654,290.573 143.785,290.615 143.625 C 290.657 143.465,290.657 143.202,290.615 143.042 C 290.573 142.881,290.539 143.012,290.539 143.333 M290.705 145.500 C 290.705 145.821,290.740 145.952,290.782 145.792 C 290.823 145.631,290.823 145.369,290.782 145.208 C 290.740 145.048,290.705 145.179,290.705 145.500 M291.039 149.500 C 291.039 149.821,291.073 149.952,291.115 149.792 C 291.157 149.631,291.157 149.369,291.115 149.208 C 291.073 149.048,291.039 149.179,291.039 149.500 M291.539 155.667 C 291.539 155.987,291.573 156.119,291.615 155.958 C 291.657 155.798,291.657 155.535,291.615 155.375 C 291.573 155.215,291.539 155.346,291.539 155.667 M278.406 315.208 L 277.917 315.750 278.458 315.260 C 278.963 314.804,279.077 314.667,278.948 314.667 C 278.919 314.667,278.675 314.910,278.406 315.208 M247.542 326.448 C 247.702 326.490,247.965 326.490,248.125 326.448 C 248.285 326.406,248.154 326.372,247.833 326.372 C 247.512 326.372,247.381 326.406,247.542 326.448 M244.794 326.618 C 245.001 326.658,245.301 326.656,245.460 326.615 C 245.620 326.573,245.450 326.540,245.083 326.542 C 244.717 326.544,244.586 326.578,244.794 326.618 M231.864 326.791 C 233.394 326.819,235.944 326.819,237.531 326.791 C 239.118 326.764,237.867 326.742,234.750 326.741 C 231.633 326.741,230.335 326.764,231.864 326.791 M95.212 353.000 C 95.212 353.412,95.245 353.581,95.284 353.375 C 95.324 353.169,95.324 352.831,95.284 352.625 C 95.245 352.419,95.212 352.587,95.212 353.000 M95.000 357.073 C 95.000 357.389,95.058 357.683,95.128 357.726 C 95.199 357.770,95.228 357.512,95.194 357.153 C 95.117 356.347,95.000 356.299,95.000 357.073 M288.883 356.791 C 289.597 356.822,290.722 356.822,291.383 356.790 C 292.043 356.759,291.458 356.733,290.083 356.733 C 288.708 356.734,288.168 356.759,288.883 356.791 M261.042 356.958 C 262.394 356.986,264.606 356.986,265.958 356.958 C 267.310 356.930,266.204 356.907,263.500 356.907 C 260.796 356.907,259.690 356.930,261.042 356.958 M227.542 357.125 C 229.260 357.152,232.073 357.152,233.792 357.125 C 235.510 357.098,234.104 357.076,230.667 357.076 C 227.229 357.076,225.823 357.098,227.542 357.125 M196.708 357.291 C 198.244 357.319,200.756 357.319,202.292 357.291 C 203.827 357.264,202.571 357.241,199.500 357.241 C 196.429 357.241,195.173 357.264,196.708 357.291 M164.208 357.458 C 165.927 357.485,168.740 357.485,170.458 357.458 C 172.177 357.431,170.771 357.409,167.333 357.409 C 163.896 357.409,162.490 357.431,164.208 357.458 M132.542 357.625 C 134.260 357.652,137.073 357.652,138.792 357.625 C 140.510 357.598,139.104 357.576,135.667 357.576 C 132.229 357.576,130.823 357.598,132.542 357.625 M99.469 357.791 C 101.240 357.819,104.090 357.818,105.803 357.791 C 107.515 357.764,106.067 357.742,102.583 357.742 C 99.100 357.742,97.699 357.764,99.469 357.791 M126.208 393.792 C 166.794 393.815,233.206 393.815,273.792 393.792 C 314.377 393.769,281.171 393.750,200.000 393.750 C 118.829 393.750,85.623 393.769,126.208 393.792 M123.958 398.292 C 165.781 398.315,234.219 398.315,276.042 398.292 C 317.865 398.269,283.646 398.250,200.000 398.250 C 116.354 398.250,82.135 398.269,123.958 398.292 " stroke="none" fill="#a1a1a1" fill-rule="evenodd"></path><path id="path4" d="M199.958 1.958 L 351.832 2.000 351.875 28.167 L 351.918 54.333 351.917 28.125 L 351.917 1.917 200.000 1.917 L 48.083 1.916 199.958 1.958 M52.416 227.167 C 52.416 318.879,52.435 356.398,52.458 310.542 C 52.481 264.685,52.481 189.648,52.458 143.792 C 52.435 97.935,52.416 135.454,52.416 227.167 M96.383 97.667 C 96.383 98.171,96.415 98.377,96.453 98.125 C 96.491 97.873,96.491 97.460,96.453 97.208 C 96.415 96.956,96.383 97.162,96.383 97.667 M212.797 109.790 C 213.282 109.824,214.032 109.823,214.464 109.789 C 214.896 109.755,214.500 109.727,213.583 109.728 C 212.667 109.728,212.313 109.756,212.797 109.790 M228.455 109.787 C 228.750 109.824,229.275 109.824,229.621 109.788 C 229.967 109.752,229.725 109.722,229.083 109.721 C 228.442 109.721,228.159 109.750,228.455 109.787 M207.292 109.955 C 207.681 109.990,208.319 109.990,208.708 109.955 C 209.098 109.920,208.779 109.892,208.000 109.892 C 207.221 109.892,206.902 109.920,207.292 109.955 M232.211 109.953 C 232.464 109.991,232.839 109.990,233.044 109.951 C 233.249 109.911,233.042 109.880,232.583 109.881 C 232.125 109.882,231.957 109.915,232.211 109.953 M201.625 110.122 C 202.015 110.157,202.652 110.157,203.042 110.122 C 203.431 110.087,203.112 110.058,202.333 110.058 C 201.554 110.058,201.235 110.087,201.625 110.122 M183.887 110.292 C 186.253 110.318,190.078 110.318,192.387 110.292 C 194.695 110.265,192.758 110.244,188.083 110.244 C 183.408 110.244,181.520 110.265,183.887 110.292 M148.458 110.458 C 150.590 110.485,154.077 110.485,156.208 110.458 C 158.340 110.432,156.596 110.410,152.333 110.410 C 148.071 110.410,146.327 110.432,148.458 110.458 M270.833 123.583 C 271.424 124.179,271.945 124.667,271.990 124.667 C 272.036 124.667,271.591 124.179,271.000 123.583 C 270.409 122.987,269.889 122.500,269.843 122.500 C 269.797 122.500,270.243 122.987,270.833 123.583 M288.872 124.167 C 288.872 124.487,288.906 124.619,288.948 124.458 C 288.990 124.298,288.990 124.035,288.948 123.875 C 288.906 123.715,288.872 123.846,288.872 124.167 M289.205 128.333 C 289.205 128.654,289.240 128.785,289.282 128.625 C 289.323 128.465,289.323 128.202,289.282 128.042 C 289.240 127.881,289.205 128.012,289.205 128.333 M289.372 130.333 C 289.372 130.654,289.406 130.785,289.448 130.625 C 289.490 130.465,289.490 130.202,289.448 130.042 C 289.406 129.881,289.372 130.012,289.372 130.333 M289.542 132.417 C 289.544 132.783,289.578 132.914,289.618 132.706 C 289.658 132.499,289.656 132.199,289.615 132.040 C 289.573 131.880,289.540 132.050,289.542 132.417 M289.705 134.500 C 289.705 134.821,289.740 134.952,289.782 134.792 C 289.823 134.631,289.823 134.369,289.782 134.208 C 289.740 134.048,289.705 134.179,289.705 134.500 M289.872 136.500 C 289.872 136.821,289.906 136.952,289.948 136.792 C 289.990 136.631,289.990 136.369,289.948 136.208 C 289.906 136.048,289.872 136.179,289.872 136.500 M290.039 138.500 C 290.039 138.821,290.073 138.952,290.115 138.792 C 290.157 138.631,290.157 138.369,290.115 138.208 C 290.073 138.048,290.039 138.179,290.039 138.500 M290.205 140.667 C 290.205 140.987,290.240 141.119,290.282 140.958 C 290.323 140.798,290.323 140.535,290.282 140.375 C 290.240 140.215,290.205 140.346,290.205 140.667 M290.539 144.667 C 290.539 144.987,290.573 145.119,290.615 144.958 C 290.657 144.798,290.657 144.535,290.615 144.375 C 290.573 144.215,290.539 144.346,290.539 144.667 M279.830 313.958 L 278.250 315.583 279.875 314.003 C 281.384 312.536,281.576 312.333,281.455 312.333 C 281.430 312.333,280.699 313.065,279.830 313.958 M248.960 326.451 C 249.168 326.491,249.468 326.490,249.627 326.448 C 249.786 326.406,249.617 326.374,249.250 326.375 C 248.883 326.377,248.753 326.411,248.960 326.451 M246.458 326.618 C 246.665 326.657,247.002 326.657,247.208 326.618 C 247.415 326.578,247.246 326.545,246.833 326.545 C 246.421 326.545,246.252 326.578,246.458 326.618 M242.463 326.789 C 242.855 326.824,243.455 326.824,243.796 326.788 C 244.137 326.752,243.817 326.723,243.083 326.724 C 242.350 326.724,242.071 326.754,242.463 326.789 M95.375 350.917 C 95.377 351.283,95.411 351.414,95.451 351.206 C 95.491 350.999,95.490 350.699,95.448 350.540 C 95.406 350.380,95.374 350.550,95.375 350.917 M95.220 355.167 C 95.220 355.762,95.250 356.006,95.287 355.708 C 95.324 355.410,95.324 354.923,95.287 354.625 C 95.250 354.327,95.220 354.571,95.220 355.167 M277.552 356.791 C 278.910 356.819,281.085 356.819,282.385 356.791 C 283.686 356.763,282.575 356.740,279.917 356.740 C 277.258 356.740,276.194 356.763,277.552 356.791 M243.303 356.958 C 245.441 356.985,248.891 356.985,250.970 356.958 C 253.049 356.932,251.300 356.910,247.083 356.910 C 242.867 356.910,241.166 356.932,243.303 356.958 M213.386 357.125 C 214.927 357.152,217.402 357.152,218.886 357.125 C 220.369 357.097,219.108 357.075,216.083 357.075 C 213.058 357.075,211.844 357.097,213.386 357.125 M176.363 357.292 C 178.809 357.317,182.859 357.318,185.363 357.292 C 187.868 357.266,185.867 357.244,180.917 357.244 C 175.967 357.244,173.918 357.266,176.363 357.292 M147.803 357.458 C 149.573 357.485,152.423 357.485,154.136 357.458 C 155.849 357.431,154.400 357.409,150.917 357.409 C 147.433 357.409,146.032 357.431,147.803 357.458 M111.637 357.625 C 113.958 357.651,117.708 357.651,119.970 357.625 C 122.232 357.599,120.333 357.577,115.750 357.577 C 111.167 357.577,109.316 357.599,111.637 357.625 " stroke="none" fill="#747474" fill-rule="evenodd"></path></g></svg>