<svg id="svg" version="1.1" xmlns="http://www.w3.org/2000/svg" xmlns:xlink="http://www.w3.org/1999/xlink" width="400" height="400" viewBox="0, 0, 400,400"><g id="svgg"><path id="path0" d="M0.000 200.000 L 0.000 400.000 22.000 400.000 L 44.000 400.000 44.000 200.000 L 44.000 0.000 22.000 0.000 L 0.000 0.000 0.000 200.000 M356.000 200.000 L 356.000 400.000 378.000 400.000 L 400.000 400.000 400.000 200.000 L 400.000 0.000 378.000 0.000 L 356.000 0.000 356.000 200.000 M79.244 42.708 C 79.200 42.823,79.184 113.679,79.207 200.167 L 79.250 357.417 200.000 357.417 L 320.750 357.417 320.802 241.833 C 320.831 178.262,320.803 107.406,320.740 84.375 L 320.625 42.500 199.974 42.500 C 103.606 42.500,79.307 42.542,79.244 42.708 M316.500 221.167 L 316.500 353.167 200.000 353.167 L 83.500 353.167 83.500 221.167 L 83.500 89.167 200.000 89.167 L 316.500 89.167 316.500 221.167 M117.724 118.958 C 117.783 120.127,117.832 121.584,117.833 122.196 L 117.833 123.308 119.216 125.029 C 119.976 125.976,124.116 131.137,128.416 136.500 C 136.228 146.242,142.835 154.478,154.419 168.917 C 165.979 183.323,169.935 188.254,177.017 197.083 C 180.915 201.942,186.271 208.617,188.919 211.917 C 198.776 224.197,197.868 222.988,197.539 223.399 C 197.289 223.711,190.452 231.859,186.411 236.659 C 185.674 237.534,184.066 239.450,182.838 240.917 C 181.610 242.383,180.034 244.258,179.336 245.083 C 178.638 245.908,174.917 250.333,171.067 254.917 C 167.218 259.500,163.284 264.180,162.326 265.317 C 161.367 266.453,159.946 268.147,159.167 269.080 C 158.387 270.013,155.578 273.358,152.924 276.513 C 145.457 285.389,143.642 287.547,134.998 297.833 C 125.345 309.321,124.707 310.080,122.407 312.809 C 116.237 320.128,116.891 318.920,116.796 323.167 L 116.750 325.250 130.417 325.201 C 146.368 325.143,195.479 324.897,237.167 324.666 C 253.254 324.577,268.000 324.503,269.935 324.502 L 273.452 324.500 273.569 322.792 C 274.098 315.057,276.649 297.969,279.426 283.564 C 279.936 280.917,280.652 277.137,281.016 275.167 C 281.380 273.196,281.904 270.395,282.181 268.943 C 282.801 265.690,283.004 266.060,280.188 265.327 L 277.810 264.709 277.391 265.646 C 276.958 266.614,275.975 268.924,274.154 273.250 C 266.005 292.611,256.665 299.410,236.500 300.661 C 233.114 300.871,148.667 300.900,148.667 300.691 C 148.667 300.613,149.660 299.354,150.875 297.893 C 153.047 295.280,156.792 290.760,165.137 280.681 C 167.458 277.877,170.008 274.806,170.803 273.855 C 171.599 272.904,172.438 271.888,172.667 271.596 C 172.896 271.305,176.496 266.951,180.667 261.921 C 184.838 256.891,188.995 251.870,189.905 250.763 C 190.815 249.656,192.618 247.475,193.913 245.917 C 195.208 244.358,197.723 241.321,199.502 239.167 C 203.124 234.782,208.238 228.605,211.163 225.083 C 212.229 223.800,214.188 221.438,215.517 219.833 C 216.847 218.229,218.849 215.814,219.967 214.467 C 221.085 213.120,222.000 211.936,222.000 211.837 C 222.000 211.738,207.107 193.041,188.905 170.287 L 155.809 128.917 163.613 128.815 C 167.905 128.760,177.314 128.703,184.523 128.690 C 191.731 128.677,200.094 128.577,203.106 128.468 C 234.046 127.344,247.006 129.964,256.375 139.235 C 262.361 145.158,266.759 156.262,267.537 167.417 L 267.583 168.083 270.292 168.129 C 271.781 168.154,273.000 168.117,272.999 168.046 C 272.997 167.814,272.031 156.157,271.095 145.083 C 270.295 135.613,269.239 122.731,268.899 118.292 L 268.787 116.833 193.201 116.833 L 117.615 116.833 117.724 118.958 " stroke="none" fill="#040404" fill-rule="evenodd"></path></g></svg>