<svg id="svg" version="1.1" xmlns="http://www.w3.org/2000/svg" xmlns:xlink="http://www.w3.org/1999/xlink" width="400" height="400" viewBox="0, 0, 400,400"><g id="svgg"><path id="path1" d="M51.167 227.417 L 51.167 395.500 200.000 395.500 L 348.833 395.500 348.833 227.417 L 348.833 59.333 200.000 59.333 L 51.167 59.333 51.167 227.417 M287.417 94.542 C 287.457 94.656,287.565 95.763,287.656 97.000 C 287.748 98.237,287.972 100.938,288.156 103.000 C 288.340 105.063,288.677 109.150,288.907 112.083 C 289.136 115.017,289.401 118.298,289.495 119.375 C 289.904 124.045,290.014 125.360,290.407 130.250 C 290.635 133.092,291.047 138.079,291.322 141.333 C 291.598 144.587,291.975 149.162,292.161 151.500 C 292.346 153.837,292.572 156.500,292.661 157.417 C 292.751 158.333,292.827 159.215,292.829 159.375 C 292.833 159.644,292.554 159.667,289.258 159.667 L 285.682 159.667 285.599 159.125 C 285.553 158.827,285.471 158.096,285.417 157.500 C 284.219 144.388,279.263 131.388,272.804 124.417 C 260.840 111.503,243.257 107.633,204.250 109.330 C 202.325 109.414,190.887 109.526,178.833 109.578 C 166.779 109.631,154.056 109.719,150.559 109.773 L 144.200 109.872 154.151 122.311 C 214.509 197.768,228.176 214.906,228.133 215.089 C 228.106 215.206,227.036 216.565,225.756 218.109 C 221.399 223.363,216.945 228.747,215.929 229.985 C 215.372 230.664,214.687 231.489,214.406 231.818 C 214.125 232.147,211.541 235.267,208.664 238.750 C 205.786 242.233,201.970 246.846,200.184 249.000 C 198.397 251.154,196.285 253.704,195.489 254.667 C 189.324 262.125,180.283 273.049,175.913 278.322 C 173.894 280.757,171.407 283.762,170.385 285.000 C 168.700 287.041,164.507 292.108,157.350 300.750 C 155.908 302.492,151.999 307.217,148.665 311.250 C 145.330 315.283,140.985 320.535,139.009 322.919 C 137.033 325.304,135.312 327.387,135.185 327.548 C 134.832 327.993,245.770 327.900,249.833 327.452 C 264.943 325.784,273.516 322.160,281.198 314.192 C 286.571 308.619,289.800 302.955,295.841 288.500 C 298.376 282.435,298.605 281.960,298.955 282.056 C 299.117 282.101,300.525 282.456,302.083 282.846 C 303.642 283.235,304.982 283.611,305.063 283.682 C 305.207 283.807,305.074 284.591,303.581 292.417 C 299.458 314.027,297.749 323.570,296.578 331.500 C 296.355 333.012,295.988 335.487,295.763 337.000 C 295.395 339.474,294.710 344.957,294.086 350.417 C 293.961 351.517,293.771 353.542,293.665 354.917 C 293.558 356.292,293.441 357.577,293.404 357.773 C 293.307 358.285,293.663 358.280,229.917 358.581 C 162.538 358.898,118.183 359.129,104.375 359.233 L 94.167 359.309 94.167 357.530 C 94.168 356.551,94.217 354.781,94.278 353.597 L 94.388 351.445 97.545 347.681 C 99.282 345.610,101.963 342.417,103.504 340.583 C 105.045 338.750,107.598 335.712,109.177 333.833 C 110.756 331.954,112.552 329.817,113.169 329.083 C 113.785 328.350,115.556 326.242,117.103 324.399 C 122.889 317.506,125.111 314.862,126.751 312.917 C 127.678 311.817,129.476 309.679,130.745 308.167 C 134.589 303.585,140.280 296.812,143.839 292.583 C 145.691 290.383,148.336 287.233,149.718 285.583 C 151.100 283.933,152.985 281.688,153.907 280.594 C 154.829 279.501,156.193 277.879,156.937 276.990 C 157.682 276.102,159.861 273.510,161.779 271.229 C 163.696 268.949,166.275 265.882,167.508 264.414 C 168.741 262.945,170.475 260.883,171.361 259.830 C 172.761 258.168,179.024 250.714,185.083 243.500 C 186.122 242.262,189.233 238.562,191.995 235.278 L 197.017 229.305 196.134 228.171 C 195.648 227.548,192.428 223.523,188.979 219.227 C 180.846 209.098,173.379 199.790,161.255 184.667 C 155.854 177.929,149.627 170.167,147.417 167.417 C 145.208 164.667,139.766 157.883,135.325 152.343 C 130.884 146.802,124.810 139.227,121.828 135.510 C 118.846 131.792,112.889 124.362,108.589 119.000 C 104.289 113.638,99.593 107.787,98.154 106.000 L 95.538 102.750 95.415 98.542 L 95.291 94.333 191.317 94.333 C 267.988 94.333,287.359 94.375,287.417 94.542 " stroke="none" fill="#fbfbfb" fill-rule="evenodd"></path><path id="path2" d="M51.083 227.417 L 51.083 395.583 200.000 395.583 L 348.917 395.583 348.917 227.458 L 348.917 59.333 348.875 227.417 L 348.833 395.500 200.000 395.500 L 51.167 395.500 51.125 227.375 L 51.083 59.250 51.083 227.417 M287.539 96.500 C 287.539 96.821,287.573 96.952,287.615 96.792 C 287.657 96.631,287.657 96.369,287.615 96.208 C 287.573 96.048,287.539 96.179,287.539 96.500 M95.387 97.667 C 95.387 98.263,95.417 98.506,95.454 98.208 C 95.491 97.910,95.491 97.423,95.454 97.125 C 95.417 96.827,95.387 97.071,95.387 97.667 M288.205 104.500 C 288.205 104.821,288.240 104.952,288.282 104.792 C 288.323 104.631,288.323 104.369,288.282 104.208 C 288.240 104.048,288.205 104.179,288.205 104.500 M288.542 108.583 C 288.544 108.950,288.578 109.080,288.618 108.873 C 288.658 108.666,288.656 108.366,288.615 108.206 C 288.573 108.047,288.540 108.217,288.542 108.583 M219.635 108.958 C 220.947 108.986,223.047 108.986,224.302 108.958 C 225.557 108.930,224.483 108.907,221.917 108.907 C 219.350 108.907,218.323 108.930,219.635 108.958 M210.792 109.122 C 211.181 109.157,211.819 109.157,212.208 109.122 C 212.598 109.087,212.279 109.058,211.500 109.058 C 210.721 109.058,210.402 109.087,210.792 109.122 M230.375 109.119 C 230.627 109.158,231.040 109.158,231.292 109.119 C 231.544 109.081,231.338 109.050,230.833 109.050 C 230.329 109.050,230.123 109.081,230.375 109.119 M205.292 109.287 C 205.590 109.324,206.077 109.324,206.375 109.287 C 206.673 109.250,206.429 109.220,205.833 109.220 C 205.237 109.220,204.994 109.250,205.292 109.287 M199.625 109.455 C 200.015 109.490,200.652 109.490,201.042 109.455 C 201.431 109.420,201.112 109.392,200.333 109.392 C 199.554 109.392,199.235 109.420,199.625 109.455 M176.292 109.625 C 178.515 109.651,182.152 109.651,184.375 109.625 C 186.598 109.599,184.779 109.577,180.333 109.577 C 175.887 109.577,174.069 109.599,176.292 109.625 M145.708 109.791 C 146.602 109.821,148.065 109.821,148.958 109.791 C 149.852 109.761,149.121 109.736,147.333 109.736 C 145.546 109.736,144.815 109.761,145.708 109.791 M288.705 110.500 C 288.705 110.821,288.740 110.952,288.782 110.792 C 288.823 110.631,288.823 110.369,288.782 110.208 C 288.740 110.048,288.705 110.179,288.705 110.500 M288.872 112.667 C 288.872 112.987,288.906 113.119,288.948 112.958 C 288.990 112.798,288.990 112.535,288.948 112.375 C 288.906 112.215,288.872 112.346,288.872 112.667 M270.583 122.167 C 270.941 122.533,271.272 122.833,271.318 122.833 C 271.363 122.833,271.108 122.533,270.750 122.167 C 270.392 121.800,270.062 121.500,270.016 121.500 C 269.970 121.500,270.225 121.800,270.583 122.167 M272.417 124.000 C 272.868 124.458,273.275 124.833,273.321 124.833 C 273.367 124.833,273.035 124.458,272.583 124.000 C 272.132 123.542,271.725 123.167,271.679 123.167 C 271.633 123.167,271.965 123.542,272.417 124.000 M290.039 126.667 C 290.039 126.987,290.073 127.119,290.115 126.958 C 290.157 126.798,290.157 126.535,290.115 126.375 C 290.073 126.215,290.039 126.346,290.039 126.667 M290.372 130.833 C 290.372 131.154,290.406 131.285,290.448 131.125 C 290.490 130.965,290.490 130.702,290.448 130.542 C 290.406 130.381,290.372 130.512,290.372 130.833 M291.539 144.833 C 291.539 145.154,291.573 145.285,291.615 145.125 C 291.657 144.965,291.657 144.702,291.615 144.542 C 291.573 144.381,291.539 144.512,291.539 144.833 M291.875 148.917 C 291.877 149.283,291.911 149.414,291.951 149.206 C 291.991 148.999,291.990 148.699,291.948 148.540 C 291.906 148.380,291.874 148.550,291.875 148.917 M292.539 157.000 C 292.539 157.321,292.573 157.452,292.615 157.292 C 292.657 157.131,292.657 156.869,292.615 156.708 C 292.573 156.548,292.539 156.679,292.539 157.000 M280.579 314.875 L 279.250 316.250 280.625 314.921 C 281.902 313.686,282.076 313.500,281.954 313.500 C 281.929 313.500,281.311 314.119,280.579 314.875 M135.002 327.581 C 134.648 328.008,134.003 328.003,188.750 327.959 L 242.250 327.916 188.605 327.875 C 140.942 327.838,134.982 327.805,135.167 327.583 C 135.281 327.446,135.337 327.333,135.291 327.333 C 135.245 327.333,135.115 327.445,135.002 327.581 M248.042 327.615 C 248.202 327.657,248.465 327.657,248.625 327.615 C 248.785 327.573,248.654 327.539,248.333 327.539 C 248.012 327.539,247.881 327.573,248.042 327.615 M245.375 327.782 C 245.535 327.823,245.798 327.823,245.958 327.782 C 246.119 327.740,245.987 327.705,245.667 327.705 C 245.346 327.705,245.215 327.740,245.375 327.782 M94.221 355.417 C 94.222 356.058,94.252 356.300,94.288 355.955 C 94.324 355.609,94.324 355.084,94.287 354.788 C 94.250 354.492,94.221 354.775,94.221 355.417 M293.375 357.250 C 293.377 357.617,293.411 357.747,293.451 357.540 C 293.491 357.332,293.490 357.032,293.448 356.873 C 293.406 356.714,293.374 356.883,293.375 357.250 M280.303 358.291 C 282.073 358.319,284.923 358.318,286.636 358.291 C 288.349 358.264,286.900 358.242,283.417 358.242 C 279.933 358.242,278.532 358.264,280.303 358.291 M245.803 358.458 C 247.573 358.485,250.423 358.485,252.136 358.458 C 253.849 358.431,252.400 358.409,248.917 358.409 C 245.433 358.409,244.032 358.431,245.803 358.458 M216.208 358.625 C 217.744 358.652,220.256 358.652,221.792 358.625 C 223.327 358.597,222.071 358.575,219.000 358.575 C 215.929 358.575,214.673 358.597,216.208 358.625 M183.636 358.792 C 185.590 358.818,188.740 358.818,190.636 358.791 C 192.532 358.765,190.933 358.743,187.083 358.743 C 183.233 358.743,181.682 358.765,183.636 358.792 M153.698 358.958 C 155.227 358.985,157.777 358.986,159.364 358.958 C 160.951 358.931,159.700 358.908,156.583 358.908 C 153.467 358.908,152.168 358.931,153.698 358.958 M120.303 359.125 C 122.441 359.151,125.891 359.151,127.970 359.125 C 130.049 359.098,128.300 359.077,124.083 359.077 C 119.867 359.077,118.166 359.098,120.303 359.125 M95.550 359.291 C 96.356 359.321,97.631 359.321,98.383 359.291 C 99.135 359.260,98.475 359.235,96.917 359.235 C 95.358 359.235,94.743 359.260,95.550 359.291 " stroke="none" fill="#a4a4a4" fill-rule="evenodd"></path><path id="path3" d="M125.542 59.292 C 166.494 59.315,233.506 59.315,274.458 59.292 C 315.410 59.269,281.904 59.250,200.000 59.250 C 118.096 59.250,84.590 59.269,125.542 59.292 M216.211 108.953 C 216.464 108.991,216.839 108.990,217.044 108.951 C 217.249 108.911,217.042 108.880,216.583 108.881 C 216.125 108.882,215.957 108.915,216.211 108.953 M226.792 108.951 C 226.998 108.991,227.335 108.991,227.542 108.951 C 227.748 108.911,227.579 108.879,227.167 108.879 C 226.754 108.879,226.585 108.911,226.792 108.951 M198.208 109.448 C 198.369 109.490,198.631 109.490,198.792 109.448 C 198.952 109.406,198.821 109.372,198.500 109.372 C 198.179 109.372,198.048 109.406,198.208 109.448 M168.217 109.624 C 169.023 109.655,170.298 109.655,171.050 109.624 C 171.802 109.593,171.142 109.568,169.583 109.568 C 168.025 109.568,167.410 109.594,168.217 109.624 M272.701 358.290 C 273.316 358.322,274.366 358.322,275.034 358.291 C 275.703 358.259,275.200 358.233,273.917 358.232 C 272.633 358.232,272.086 358.258,272.701 358.290 M239.625 358.457 C 240.198 358.489,241.135 358.489,241.708 358.457 C 242.281 358.424,241.813 358.398,240.667 358.398 C 239.521 358.398,239.052 358.424,239.625 358.457 M210.382 358.624 C 211.004 358.656,211.979 358.656,212.549 358.623 C 213.118 358.591,212.608 358.564,211.417 358.565 C 210.225 358.565,209.759 358.592,210.382 358.624 M177.049 358.790 C 177.671 358.823,178.646 358.822,179.215 358.790 C 179.784 358.757,179.275 358.731,178.083 358.731 C 176.892 358.732,176.426 358.758,177.049 358.790 M147.708 358.957 C 148.327 358.989,149.340 358.989,149.958 358.957 C 150.577 358.925,150.071 358.899,148.833 358.899 C 147.596 358.899,147.090 358.925,147.708 358.957 M112.383 359.124 C 113.190 359.155,114.465 359.155,115.217 359.124 C 115.968 359.093,115.308 359.068,113.750 359.068 C 112.192 359.068,111.577 359.094,112.383 359.124 " stroke="none" fill="#848484" fill-rule="evenodd"></path><path id="path4" d="M353.167 26.490 C 353.167 43.970,353.223 53.015,353.333 53.083 C 353.444 53.152,353.500 44.280,353.500 26.593 C 353.500 8.976,353.444 0.000,353.333 0.000 C 353.223 0.000,353.167 8.941,353.167 26.490 M95.400 94.566 C 95.351 94.694,95.341 95.087,95.378 95.441 C 95.441 96.051,95.445 96.044,95.472 95.292 L 95.500 94.500 191.458 94.458 L 287.417 94.416 191.453 94.375 C 109.494 94.339,95.477 94.367,95.400 94.566 M95.557 101.250 C 95.558 101.983,95.587 102.263,95.622 101.871 C 95.657 101.479,95.657 100.879,95.621 100.537 C 95.585 100.196,95.557 100.517,95.557 101.250 M288.039 103.667 C 288.039 103.987,288.073 104.119,288.115 103.958 C 288.157 103.798,288.157 103.535,288.115 103.375 C 288.073 103.215,288.039 103.346,288.039 103.667 M288.375 107.750 C 288.377 108.117,288.411 108.247,288.451 108.040 C 288.491 107.832,288.490 107.532,288.448 107.373 C 288.406 107.214,288.374 107.383,288.375 107.750 M213.542 108.956 C 213.977 108.990,214.690 108.990,215.125 108.956 C 215.560 108.922,215.204 108.893,214.333 108.893 C 213.463 108.893,213.106 108.922,213.542 108.956 M228.288 108.954 C 228.584 108.990,229.109 108.991,229.455 108.955 C 229.800 108.919,229.558 108.889,228.917 108.888 C 228.275 108.887,227.992 108.917,228.288 108.954 M208.208 109.119 C 208.460 109.158,208.873 109.158,209.125 109.119 C 209.377 109.081,209.171 109.050,208.667 109.050 C 208.162 109.050,207.956 109.081,208.208 109.119 M232.208 109.115 C 232.369 109.157,232.631 109.157,232.792 109.115 C 232.952 109.073,232.821 109.039,232.500 109.039 C 232.179 109.039,232.048 109.073,232.208 109.115 M202.625 109.287 C 202.923 109.324,203.410 109.324,203.708 109.287 C 204.006 109.250,203.762 109.220,203.167 109.220 C 202.571 109.220,202.327 109.250,202.625 109.287 M195.208 109.456 C 195.735 109.490,196.598 109.490,197.125 109.456 C 197.652 109.423,197.221 109.396,196.167 109.396 C 195.112 109.396,194.681 109.423,195.208 109.456 M288.539 109.833 C 288.539 110.154,288.573 110.285,288.615 110.125 C 288.657 109.965,288.657 109.702,288.615 109.542 C 288.573 109.381,288.539 109.513,288.539 109.833 M153.292 109.625 C 155.790 109.651,159.877 109.651,162.375 109.625 C 164.873 109.599,162.829 109.578,157.833 109.578 C 152.837 109.578,150.794 109.599,153.292 109.625 M288.705 111.833 C 288.705 112.154,288.740 112.285,288.782 112.125 C 288.823 111.965,288.823 111.702,288.782 111.542 C 288.740 111.381,288.705 111.513,288.705 111.833 M271.583 123.000 C 272.312 123.733,272.946 124.333,272.992 124.333 C 273.038 124.333,272.479 123.733,271.750 123.000 C 271.021 122.267,270.387 121.667,270.341 121.667 C 270.295 121.667,270.854 122.267,271.583 123.000 M289.705 123.833 C 289.705 124.154,289.740 124.285,289.782 124.125 C 289.823 123.965,289.823 123.702,289.782 123.542 C 289.740 123.381,289.705 123.513,289.705 123.833 M289.872 126.000 C 289.872 126.321,289.906 126.452,289.948 126.292 C 289.990 126.131,289.990 125.869,289.948 125.708 C 289.906 125.548,289.872 125.679,289.872 126.000 M290.039 128.000 C 290.039 128.321,290.073 128.452,290.115 128.292 C 290.157 128.131,290.157 127.869,290.115 127.708 C 290.073 127.548,290.039 127.679,290.039 128.000 M290.205 130.000 C 290.205 130.321,290.240 130.452,290.282 130.292 C 290.323 130.131,290.323 129.869,290.282 129.708 C 290.240 129.548,290.205 129.679,290.205 130.000 M291.372 144.000 C 291.372 144.321,291.406 144.452,291.448 144.292 C 291.490 144.131,291.490 143.869,291.448 143.708 C 291.406 143.548,291.372 143.679,291.372 144.000 M291.539 146.167 C 291.539 146.487,291.573 146.619,291.615 146.458 C 291.657 146.298,291.657 146.035,291.615 145.875 C 291.573 145.715,291.539 145.846,291.539 146.167 M291.705 148.167 C 291.705 148.487,291.740 148.619,291.782 148.458 C 291.823 148.298,291.823 148.035,291.782 147.875 C 291.740 147.715,291.705 147.846,291.705 148.167 M291.872 150.167 C 291.872 150.487,291.906 150.619,291.948 150.458 C 291.990 150.298,291.990 150.035,291.948 149.875 C 291.906 149.715,291.872 149.846,291.872 150.167 M285.720 159.250 C 285.753 159.571,285.879 159.584,289.169 159.588 L 292.583 159.593 289.220 159.543 C 286.201 159.498,285.848 159.464,285.771 159.205 C 285.706 158.986,285.694 158.997,285.720 159.250 M280.667 314.917 C 280.262 315.329,279.968 315.667,280.014 315.667 C 280.060 315.667,280.428 315.329,280.833 314.917 C 281.238 314.504,281.532 314.167,281.486 314.167 C 281.440 314.167,281.072 314.504,280.667 314.917 M246.708 327.782 C 246.869 327.823,247.131 327.823,247.292 327.782 C 247.452 327.740,247.321 327.705,247.000 327.705 C 246.679 327.705,246.548 327.740,246.708 327.782 M243.211 327.953 C 243.464 327.991,243.839 327.990,244.044 327.951 C 244.249 327.911,244.042 327.880,243.583 327.881 C 243.125 327.882,242.957 327.915,243.211 327.953 M94.385 353.917 C 94.386 354.467,94.417 354.672,94.454 354.372 C 94.491 354.072,94.490 353.622,94.452 353.372 C 94.414 353.122,94.384 353.367,94.385 353.917 M94.220 358.167 C 94.220 358.762,94.250 359.006,94.287 358.708 C 94.324 358.410,94.324 357.923,94.287 357.625 C 94.250 357.327,94.220 357.571,94.220 358.167 M293.167 357.718 C 293.167 357.956,292.860 357.997,290.792 358.042 L 288.417 358.093 290.797 358.130 C 293.133 358.166,293.744 358.022,293.271 357.548 C 293.213 357.491,293.167 357.567,293.167 357.718 M262.303 358.291 C 264.073 358.319,266.923 358.318,268.636 358.291 C 270.349 358.264,268.900 358.242,265.417 358.242 C 261.933 358.242,260.532 358.264,262.303 358.291 M230.125 358.458 C 231.706 358.485,234.294 358.485,235.875 358.458 C 237.456 358.431,236.162 358.408,233.000 358.408 C 229.838 358.408,228.544 358.431,230.125 358.458 M199.969 358.625 C 201.740 358.652,204.590 358.652,206.303 358.625 C 208.015 358.598,206.567 358.576,203.083 358.576 C 199.600 358.576,198.199 358.598,199.969 358.625 M165.458 358.791 C 167.406 358.818,170.594 358.818,172.542 358.791 C 174.490 358.765,172.896 358.743,169.000 358.743 C 165.104 358.743,163.510 358.765,165.458 358.791 M135.303 358.958 C 137.441 358.985,140.891 358.985,142.970 358.958 C 145.049 358.932,143.300 358.910,139.083 358.910 C 134.867 358.910,133.166 358.932,135.303 358.958 M99.458 359.125 C 101.590 359.151,105.077 359.151,107.208 359.125 C 109.340 359.098,107.596 359.077,103.333 359.077 C 99.071 359.077,97.327 359.098,99.458 359.125 " stroke="none" fill="#747474" fill-rule="evenodd"></path><path id="path0" d="M46.500 200.000 L 46.500 400.000 200.000 400.000 L 353.500 400.000 353.500 226.593 C 353.500 111.168,353.444 53.152,353.333 53.083 C 353.223 53.015,353.167 43.970,353.167 26.490 L 353.167 0.000 199.833 0.000 L 46.500 0.000 46.500 200.000 M349.000 227.417 L 349.000 395.667 200.000 395.667 L 51.000 395.667 51.000 227.417 L 51.000 59.167 200.000 59.167 L 349.000 59.167 349.000 227.417 M95.517 97.042 C 95.526 98.440,95.582 100.296,95.642 101.167 L 95.750 102.750 107.167 116.979 C 113.446 124.805,122.590 136.205,127.488 142.313 C 132.385 148.420,140.031 157.954,144.480 163.500 C 148.928 169.046,155.754 177.558,159.649 182.417 C 163.545 187.275,168.690 193.688,171.083 196.667 C 173.476 199.646,179.851 207.596,185.250 214.333 C 190.649 221.071,195.543 227.172,196.125 227.891 C 196.708 228.610,197.161 229.258,197.134 229.331 C 197.106 229.405,195.808 230.984,194.250 232.841 C 189.526 238.470,176.252 254.266,171.917 259.417 C 168.955 262.937,164.447 268.302,152.732 282.250 C 148.883 286.833,145.287 291.114,144.742 291.762 C 144.196 292.410,142.777 294.097,141.587 295.512 C 140.398 296.926,138.573 299.096,137.531 300.333 C 136.490 301.571,133.751 304.830,131.444 307.577 C 122.971 317.664,121.693 319.186,118.833 322.586 C 117.229 324.494,114.304 327.975,112.333 330.323 C 110.362 332.671,107.050 336.615,104.972 339.088 C 102.894 341.560,99.699 345.363,97.873 347.537 L 94.552 351.491 94.443 354.022 C 94.383 355.414,94.333 357.122,94.333 357.818 L 94.333 359.083 101.875 359.046 C 106.023 359.026,125.354 358.931,144.833 358.837 C 252.602 358.313,292.984 358.071,293.106 357.950 C 293.163 357.893,293.350 356.362,293.523 354.548 C 294.350 345.859,295.402 337.775,297.001 327.833 C 297.856 322.516,298.377 319.507,300.258 309.033 C 300.477 307.813,300.962 305.225,301.335 303.283 C 301.708 301.340,302.306 298.212,302.664 296.333 C 303.022 294.454,303.694 290.944,304.158 288.532 C 304.621 286.120,305.000 284.056,305.000 283.944 C 305.000 283.819,303.861 283.460,302.042 283.012 C 300.415 282.611,299.000 282.253,298.899 282.216 C 298.735 282.157,297.852 284.112,295.458 289.833 C 284.124 316.926,274.210 325.106,249.667 327.618 C 246.541 327.938,134.833 328.170,134.833 327.857 C 134.833 327.774,135.632 326.741,136.609 325.561 C 137.585 324.382,139.812 321.692,141.558 319.583 C 143.304 317.475,145.937 314.294,147.408 312.514 C 150.114 309.242,154.298 304.187,157.835 299.917 C 158.898 298.633,161.072 296.008,162.665 294.083 C 164.259 292.158,166.247 289.758,167.084 288.750 C 167.920 287.742,170.246 284.929,172.253 282.500 C 174.260 280.071,177.145 276.583,178.664 274.750 C 180.183 272.917,182.473 270.149,183.754 268.600 C 185.035 267.050,187.396 264.198,189.000 262.261 C 190.604 260.325,194.240 255.930,197.080 252.495 C 199.919 249.060,202.844 245.529,203.580 244.648 C 204.315 243.767,206.079 241.636,207.500 239.913 C 208.921 238.189,211.425 235.160,213.065 233.181 C 216.284 229.298,219.565 225.335,222.737 221.500 C 223.836 220.171,225.481 218.190,226.391 217.098 C 227.867 215.329,228.024 215.077,227.843 214.786 C 227.730 214.606,209.249 191.462,186.774 163.355 C 164.298 135.247,145.472 111.701,144.938 111.030 C 144.404 110.359,144.018 109.760,144.080 109.698 C 144.142 109.636,156.993 109.530,172.638 109.464 C 188.283 109.398,202.808 109.267,204.917 109.174 C 241.524 107.560,258.760 110.985,271.047 122.317 C 278.335 129.037,283.762 141.791,285.415 156.083 C 285.563 157.367,285.722 158.660,285.767 158.958 L 285.848 159.500 289.279 159.500 L 292.710 159.500 292.607 158.542 C 292.490 157.449,291.905 150.477,290.584 134.417 C 290.078 128.275,289.474 120.962,289.240 118.167 C 289.006 115.371,288.560 109.933,288.247 106.083 C 287.935 102.233,287.589 98.052,287.478 96.792 L 287.278 94.500 191.389 94.500 L 95.500 94.500 95.517 97.042 " stroke="none" fill="#040404" fill-rule="evenodd"></path><path id="path1" d="M51.167 227.417 L 51.167 395.500 200.000 395.500 L 348.833 395.500 348.833 227.417 L 348.833 59.333 200.000 59.333 L 51.167 59.333 51.167 227.417 M287.417 94.542 C 287.457 94.656,287.565 95.763,287.656 97.000 C 287.748 98.237,287.972 100.938,288.156 103.000 C 288.340 105.063,288.677 109.150,288.907 112.083 C 289.136 115.017,289.401 118.298,289.495 119.375 C 289.904 124.045,290.014 125.360,290.407 130.250 C 290.635 133.092,291.047 138.079,291.322 141.333 C 291.598 144.587,291.975 149.162,292.161 151.500 C 292.346 153.837,292.572 156.500,292.661 157.417 C 292.751 158.333,292.827 159.215,292.829 159.375 C 292.833 159.644,292.554 159.667,289.258 159.667 L 285.682 159.667 285.599 159.125 C 285.553 158.827,285.471 158.096,285.417 157.500 C 284.219 144.388,279.263 131.388,272.804 124.417 C 260.840 111.503,243.257 107.633,204.250 109.330 C 202.325 109.414,190.887 109.526,178.833 109.578 C 166.779 109.631,154.056 109.719,150.559 109.773 L 144.200 109.872 154.151 122.311 C 214.509 197.768,228.176 214.906,228.133 215.089 C 228.106 215.206,227.036 216.565,225.756 218.109 C 221.399 223.363,216.945 228.747,215.929 229.985 C 215.372 230.664,214.687 231.489,214.406 231.818 C 214.125 232.147,211.541 235.267,208.664 238.750 C 205.786 242.233,201.970 246.846,200.184 249.000 C 198.397 251.154,196.285 253.704,195.489 254.667 C 189.324 262.125,180.283 273.049,175.913 278.322 C 173.894 280.757,171.407 283.762,170.385 285.000 C 168.700 287.041,164.507 292.108,157.350 300.750 C 155.908 302.492,151.999 307.217,148.665 311.250 C 145.330 315.283,140.985 320.535,139.009 322.919 C 137.033 325.304,135.312 327.387,135.185 327.548 C 134.832 327.993,245.770 327.900,249.833 327.452 C 264.943 325.784,273.516 322.160,281.198 314.192 C 286.571 308.619,289.800 302.955,295.841 288.500 C 298.376 282.435,298.605 281.960,298.955 282.056 C 299.117 282.101,300.525 282.456,302.083 282.846 C 303.642 283.235,304.982 283.611,305.063 283.682 C 305.207 283.807,305.074 284.591,303.581 292.417 C 299.458 314.027,297.749 323.570,296.578 331.500 C 296.355 333.012,295.988 335.487,295.763 337.000 C 295.395 339.474,294.710 344.957,294.086 350.417 C 293.961 351.517,293.771 353.542,293.665 354.917 C 293.558 356.292,293.441 357.577,293.404 357.773 C 293.307 358.285,293.663 358.280,229.917 358.581 C 162.538 358.898,118.183 359.129,104.375 359.233 L 94.167 359.309 94.167 357.530 C 94.168 356.551,94.217 354.781,94.278 353.597 L 94.388 351.445 97.545 347.681 C 99.282 345.610,101.963 342.417,103.504 340.583 C 105.045 338.750,107.598 335.712,109.177 333.833 C 110.756 331.954,112.552 329.817,113.169 329.083 C 113.785 328.350,115.556 326.242,117.103 324.399 C 122.889 317.506,125.111 314.862,126.751 312.917 C 127.678 311.817,129.476 309.679,130.745 308.167 C 134.589 303.585,140.280 296.812,143.839 292.583 C 145.691 290.383,148.336 287.233,149.718 285.583 C 151.100 283.933,152.985 281.688,153.907 280.594 C 154.829 279.501,156.193 277.879,156.937 276.990 C 157.682 276.102,159.861 273.510,161.779 271.229 C 163.696 268.949,166.275 265.882,167.508 264.414 C 168.741 262.945,170.475 260.883,171.361 259.830 C 172.761 258.168,179.024 250.714,185.083 243.500 C 186.122 242.262,189.233 238.562,191.995 235.278 L 197.017 229.305 196.134 228.171 C 195.648 227.548,192.428 223.523,188.979 219.227 C 180.846 209.098,173.379 199.790,161.255 184.667 C 155.854 177.929,149.627 170.167,147.417 167.417 C 145.208 164.667,139.766 157.883,135.325 152.343 C 130.884 146.802,124.810 139.227,121.828 135.510 C 118.846 131.792,112.889 124.362,108.589 119.000 C 104.289 113.638,99.593 107.787,98.154 106.000 L 95.538 102.750 95.415 98.542 L 95.291 94.333 191.317 94.333 C 267.988 94.333,287.359 94.375,287.417 94.542 " stroke="none" fill="#fbfbfb" fill-rule="evenodd"></path><path id="path2" d="M51.083 227.417 L 51.083 395.583 200.000 395.583 L 348.917 395.583 348.917 227.458 L 348.917 59.333 348.875 227.417 L 348.833 395.500 200.000 395.500 L 51.167 395.500 51.125 227.375 L 51.083 59.250 51.083 227.417 M287.539 96.500 C 287.539 96.821,287.573 96.952,287.615 96.792 C 287.657 96.631,287.657 96.369,287.615 96.208 C 287.573 96.048,287.539 96.179,287.539 96.500 M95.387 97.667 C 95.387 98.263,95.417 98.506,95.454 98.208 C 95.491 97.910,95.491 97.423,95.454 97.125 C 95.417 96.827,95.387 97.071,95.387 97.667 M288.205 104.500 C 288.205 104.821,288.240 104.952,288.282 104.792 C 288.323 104.631,288.323 104.369,288.282 104.208 C 288.240 104.048,288.205 104.179,288.205 104.500 M288.542 108.583 C 288.544 108.950,288.578 109.080,288.618 108.873 C 288.658 108.666,288.656 108.366,288.615 108.206 C 288.573 108.047,288.540 108.217,288.542 108.583 M219.635 108.958 C 220.947 108.986,223.047 108.986,224.302 108.958 C 225.557 108.930,224.483 108.907,221.917 108.907 C 219.350 108.907,218.323 108.930,219.635 108.958 M210.792 109.122 C 211.181 109.157,211.819 109.157,212.208 109.122 C 212.598 109.087,212.279 109.058,211.500 109.058 C 210.721 109.058,210.402 109.087,210.792 109.122 M230.375 109.119 C 230.627 109.158,231.040 109.158,231.292 109.119 C 231.544 109.081,231.338 109.050,230.833 109.050 C 230.329 109.050,230.123 109.081,230.375 109.119 M205.292 109.287 C 205.590 109.324,206.077 109.324,206.375 109.287 C 206.673 109.250,206.429 109.220,205.833 109.220 C 205.237 109.220,204.994 109.250,205.292 109.287 M199.625 109.455 C 200.015 109.490,200.652 109.490,201.042 109.455 C 201.431 109.420,201.112 109.392,200.333 109.392 C 199.554 109.392,199.235 109.420,199.625 109.455 M176.292 109.625 C 178.515 109.651,182.152 109.651,184.375 109.625 C 186.598 109.599,184.779 109.577,180.333 109.577 C 175.887 109.577,174.069 109.599,176.292 109.625 M145.708 109.791 C 146.602 109.821,148.065 109.821,148.958 109.791 C 149.852 109.761,149.121 109.736,147.333 109.736 C 145.546 109.736,144.815 109.761,145.708 109.791 M288.705 110.500 C 288.705 110.821,288.740 110.952,288.782 110.792 C 288.823 110.631,288.823 110.369,288.782 110.208 C 288.740 110.048,288.705 110.179,288.705 110.500 M288.872 112.667 C 288.872 112.987,288.906 113.119,288.948 112.958 C 288.990 112.798,288.990 112.535,288.948 112.375 C 288.906 112.215,288.872 112.346,288.872 112.667 M270.583 122.167 C 270.941 122.533,271.272 122.833,271.318 122.833 C 271.363 122.833,271.108 122.533,270.750 122.167 C 270.392 121.800,270.062 121.500,270.016 121.500 C 269.970 121.500,270.225 121.800,270.583 122.167 M272.417 124.000 C 272.868 124.458,273.275 124.833,273.321 124.833 C 273.367 124.833,273.035 124.458,272.583 124.000 C 272.132 123.542,271.725 123.167,271.679 123.167 C 271.633 123.167,271.965 123.542,272.417 124.000 M290.039 126.667 C 290.039 126.987,290.073 127.119,290.115 126.958 C 290.157 126.798,290.157 126.535,290.115 126.375 C 290.073 126.215,290.039 126.346,290.039 126.667 M290.372 130.833 C 290.372 131.154,290.406 131.285,290.448 131.125 C 290.490 130.965,290.490 130.702,290.448 130.542 C 290.406 130.381,290.372 130.512,290.372 130.833 M291.539 144.833 C 291.539 145.154,291.573 145.285,291.615 145.125 C 291.657 144.965,291.657 144.702,291.615 144.542 C 291.573 144.381,291.539 144.512,291.539 144.833 M291.875 148.917 C 291.877 149.283,291.911 149.414,291.951 149.206 C 291.991 148.999,291.990 148.699,291.948 148.540 C 291.906 148.380,291.874 148.550,291.875 148.917 M292.539 157.000 C 292.539 157.321,292.573 157.452,292.615 157.292 C 292.657 157.131,292.657 156.869,292.615 156.708 C 292.573 156.548,292.539 156.679,292.539 157.000 M280.579 314.875 L 279.250 316.250 280.625 314.921 C 281.902 313.686,282.076 313.500,281.954 313.500 C 281.929 313.500,281.311 314.119,280.579 314.875 M135.002 327.581 C 134.648 328.008,134.003 328.003,188.750 327.959 L 242.250 327.916 188.605 327.875 C 140.942 327.838,134.982 327.805,135.167 327.583 C 135.281 327.446,135.337 327.333,135.291 327.333 C 135.245 327.333,135.115 327.445,135.002 327.581 M248.042 327.615 C 248.202 327.657,248.465 327.657,248.625 327.615 C 248.785 327.573,248.654 327.539,248.333 327.539 C 248.012 327.539,247.881 327.573,248.042 327.615 M245.375 327.782 C 245.535 327.823,245.798 327.823,245.958 327.782 C 246.119 327.740,245.987 327.705,245.667 327.705 C 245.346 327.705,245.215 327.740,245.375 327.782 M94.221 355.417 C 94.222 356.058,94.252 356.300,94.288 355.955 C 94.324 355.609,94.324 355.084,94.287 354.788 C 94.250 354.492,94.221 354.775,94.221 355.417 M293.375 357.250 C 293.377 357.617,293.411 357.747,293.451 357.540 C 293.491 357.332,293.490 357.032,293.448 356.873 C 293.406 356.714,293.374 356.883,293.375 357.250 M280.303 358.291 C 282.073 358.319,284.923 358.318,286.636 358.291 C 288.349 358.264,286.900 358.242,283.417 358.242 C 279.933 358.242,278.532 358.264,280.303 358.291 M245.803 358.458 C 247.573 358.485,250.423 358.485,252.136 358.458 C 253.849 358.431,252.400 358.409,248.917 358.409 C 245.433 358.409,244.032 358.431,245.803 358.458 M216.208 358.625 C 217.744 358.652,220.256 358.652,221.792 358.625 C 223.327 358.597,222.071 358.575,219.000 358.575 C 215.929 358.575,214.673 358.597,216.208 358.625 M183.636 358.792 C 185.590 358.818,188.740 358.818,190.636 358.791 C 192.532 358.765,190.933 358.743,187.083 358.743 C 183.233 358.743,181.682 358.765,183.636 358.792 M153.698 358.958 C 155.227 358.985,157.777 358.986,159.364 358.958 C 160.951 358.931,159.700 358.908,156.583 358.908 C 153.467 358.908,152.168 358.931,153.698 358.958 M120.303 359.125 C 122.441 359.151,125.891 359.151,127.970 359.125 C 130.049 359.098,128.300 359.077,124.083 359.077 C 119.867 359.077,118.166 359.098,120.303 359.125 M95.550 359.291 C 96.356 359.321,97.631 359.321,98.383 359.291 C 99.135 359.260,98.475 359.235,96.917 359.235 C 95.358 359.235,94.743 359.260,95.550 359.291 " stroke="none" fill="#a4a4a4" fill-rule="evenodd"></path><path id="path3" d="M125.542 59.292 C 166.494 59.315,233.506 59.315,274.458 59.292 C 315.410 59.269,281.904 59.250,200.000 59.250 C 118.096 59.250,84.590 59.269,125.542 59.292 M216.211 108.953 C 216.464 108.991,216.839 108.990,217.044 108.951 C 217.249 108.911,217.042 108.880,216.583 108.881 C 216.125 108.882,215.957 108.915,216.211 108.953 M226.792 108.951 C 226.998 108.991,227.335 108.991,227.542 108.951 C 227.748 108.911,227.579 108.879,227.167 108.879 C 226.754 108.879,226.585 108.911,226.792 108.951 M198.208 109.448 C 198.369 109.490,198.631 109.490,198.792 109.448 C 198.952 109.406,198.821 109.372,198.500 109.372 C 198.179 109.372,198.048 109.406,198.208 109.448 M168.217 109.624 C 169.023 109.655,170.298 109.655,171.050 109.624 C 171.802 109.593,171.142 109.568,169.583 109.568 C 168.025 109.568,167.410 109.594,168.217 109.624 M272.701 358.290 C 273.316 358.322,274.366 358.322,275.034 358.291 C 275.703 358.259,275.200 358.233,273.917 358.232 C 272.633 358.232,272.086 358.258,272.701 358.290 M239.625 358.457 C 240.198 358.489,241.135 358.489,241.708 358.457 C 242.281 358.424,241.813 358.398,240.667 358.398 C 239.521 358.398,239.052 358.424,239.625 358.457 M210.382 358.624 C 211.004 358.656,211.979 358.656,212.549 358.623 C 213.118 358.591,212.608 358.564,211.417 358.565 C 210.225 358.565,209.759 358.592,210.382 358.624 M177.049 358.790 C 177.671 358.823,178.646 358.822,179.215 358.790 C 179.784 358.757,179.275 358.731,178.083 358.731 C 176.892 358.732,176.426 358.758,177.049 358.790 M147.708 358.957 C 148.327 358.989,149.340 358.989,149.958 358.957 C 150.577 358.925,150.071 358.899,148.833 358.899 C 147.596 358.899,147.090 358.925,147.708 358.957 M112.383 359.124 C 113.190 359.155,114.465 359.155,115.217 359.124 C 115.968 359.093,115.308 359.068,113.750 359.068 C 112.192 359.068,111.577 359.094,112.383 359.124 " stroke="none" fill="#848484" fill-rule="evenodd"></path><path id="path4" d="M353.167 26.490 C 353.167 43.970,353.223 53.015,353.333 53.083 C 353.444 53.152,353.500 44.280,353.500 26.593 C 353.500 8.976,353.444 0.000,353.333 0.000 C 353.223 0.000,353.167 8.941,353.167 26.490 M95.400 94.566 C 95.351 94.694,95.341 95.087,95.378 95.441 C 95.441 96.051,95.445 96.044,95.472 95.292 L 95.500 94.500 191.458 94.458 L 287.417 94.416 191.453 94.375 C 109.494 94.339,95.477 94.367,95.400 94.566 M95.557 101.250 C 95.558 101.983,95.587 102.263,95.622 101.871 C 95.657 101.479,95.657 100.879,95.621 100.537 C 95.585 100.196,95.557 100.517,95.557 101.250 M288.039 103.667 C 288.039 103.987,288.073 104.119,288.115 103.958 C 288.157 103.798,288.157 103.535,288.115 103.375 C 288.073 103.215,288.039 103.346,288.039 103.667 M288.375 107.750 C 288.377 108.117,288.411 108.247,288.451 108.040 C 288.491 107.832,288.490 107.532,288.448 107.373 C 288.406 107.214,288.374 107.383,288.375 107.750 M213.542 108.956 C 213.977 108.990,214.690 108.990,215.125 108.956 C 215.560 108.922,215.204 108.893,214.333 108.893 C 213.463 108.893,213.106 108.922,213.542 108.956 M228.288 108.954 C 228.584 108.990,229.109 108.991,229.455 108.955 C 229.800 108.919,229.558 108.889,228.917 108.888 C 228.275 108.887,227.992 108.917,228.288 108.954 M208.208 109.119 C 208.460 109.158,208.873 109.158,209.125 109.119 C 209.377 109.081,209.171 109.050,208.667 109.050 C 208.162 109.050,207.956 109.081,208.208 109.119 M232.208 109.115 C 232.369 109.157,232.631 109.157,232.792 109.115 C 232.952 109.073,232.821 109.039,232.500 109.039 C 232.179 109.039,232.048 109.073,232.208 109.115 M202.625 109.287 C 202.923 109.324,203.410 109.324,203.708 109.287 C 204.006 109.250,203.762 109.220,203.167 109.220 C 202.571 109.220,202.327 109.250,202.625 109.287 M195.208 109.456 C 195.735 109.490,196.598 109.490,197.125 109.456 C 197.652 109.423,197.221 109.396,196.167 109.396 C 195.112 109.396,194.681 109.423,195.208 109.456 M288.539 109.833 C 288.539 110.154,288.573 110.285,288.615 110.125 C 288.657 109.965,288.657 109.702,288.615 109.542 C 288.573 109.381,288.539 109.513,288.539 109.833 M153.292 109.625 C 155.790 109.651,159.877 109.651,162.375 109.625 C 164.873 109.599,162.829 109.578,157.833 109.578 C 152.837 109.578,150.794 109.599,153.292 109.625 M288.705 111.833 C 288.705 112.154,288.740 112.285,288.782 112.125 C 288.823 111.965,288.823 111.702,288.782 111.542 C 288.740 111.381,288.705 111.513,288.705 111.833 M271.583 123.000 C 272.312 123.733,272.946 124.333,272.992 124.333 C 273.038 124.333,272.479 123.733,271.750 123.000 C 271.021 122.267,270.387 121.667,270.341 121.667 C 270.295 121.667,270.854 122.267,271.583 123.000 M289.705 123.833 C 289.705 124.154,289.740 124.285,289.782 124.125 C 289.823 123.965,289.823 123.702,289.782 123.542 C 289.740 123.381,289.705 123.513,289.705 123.833 M289.872 126.000 C 289.872 126.321,289.906 126.452,289.948 126.292 C 289.990 126.131,289.990 125.869,289.948 125.708 C 289.906 125.548,289.872 125.679,289.872 126.000 M290.039 128.000 C 290.039 128.321,290.073 128.452,290.115 128.292 C 290.157 128.131,290.157 127.869,290.115 127.708 C 290.073 127.548,290.039 127.679,290.039 128.000 M290.205 130.000 C 290.205 130.321,290.240 130.452,290.282 130.292 C 290.323 130.131,290.323 129.869,290.282 129.708 C 290.240 129.548,290.205 129.679,290.205 130.000 M291.372 144.000 C 291.372 144.321,291.406 144.452,291.448 144.292 C 291.490 144.131,291.490 143.869,291.448 143.708 C 291.406 143.548,291.372 143.679,291.372 144.000 M291.539 146.167 C 291.539 146.487,291.573 146.619,291.615 146.458 C 291.657 146.298,291.657 146.035,291.615 145.875 C 291.573 145.715,291.539 145.846,291.539 146.167 M291.705 148.167 C 291.705 148.487,291.740 148.619,291.782 148.458 C 291.823 148.298,291.823 148.035,291.782 147.875 C 291.740 147.715,291.705 147.846,291.705 148.167 M291.872 150.167 C 291.872 150.487,291.906 150.619,291.948 150.458 C 291.990 150.298,291.990 150.035,291.948 149.875 C 291.906 149.715,291.872 149.846,291.872 150.167 M285.720 159.250 C 285.753 159.571,285.879 159.584,289.169 159.588 L 292.583 159.593 289.220 159.543 C 286.201 159.498,285.848 159.464,285.771 159.205 C 285.706 158.986,285.694 158.997,285.720 159.250 M280.667 314.917 C 280.262 315.329,279.968 315.667,280.014 315.667 C 280.060 315.667,280.428 315.329,280.833 314.917 C 281.238 314.504,281.532 314.167,281.486 314.167 C 281.440 314.167,281.072 314.504,280.667 314.917 M246.708 327.782 C 246.869 327.823,247.131 327.823,247.292 327.782 C 247.452 327.740,247.321 327.705,247.000 327.705 C 246.679 327.705,246.548 327.740,246.708 327.782 M243.211 327.953 C 243.464 327.991,243.839 327.990,244.044 327.951 C 244.249 327.911,244.042 327.880,243.583 327.881 C 243.125 327.882,242.957 327.915,243.211 327.953 M94.385 353.917 C 94.386 354.467,94.417 354.672,94.454 354.372 C 94.491 354.072,94.490 353.622,94.452 353.372 C 94.414 353.122,94.384 353.367,94.385 353.917 M94.220 358.167 C 94.220 358.762,94.250 359.006,94.287 358.708 C 94.324 358.410,94.324 357.923,94.287 357.625 C 94.250 357.327,94.220 357.571,94.220 358.167 M293.167 357.718 C 293.167 357.956,292.860 357.997,290.792 358.042 L 288.417 358.093 290.797 358.130 C 293.133 358.166,293.744 358.022,293.271 357.548 C 293.213 357.491,293.167 357.567,293.167 357.718 M262.303 358.291 C 264.073 358.319,266.923 358.318,268.636 358.291 C 270.349 358.264,268.900 358.242,265.417 358.242 C 261.933 358.242,260.532 358.264,262.303 358.291 M230.125 358.458 C 231.706 358.485,234.294 358.485,235.875 358.458 C 237.456 358.431,236.162 358.408,233.000 358.408 C 229.838 358.408,228.544 358.431,230.125 358.458 M199.969 358.625 C 201.740 358.652,204.590 358.652,206.303 358.625 C 208.015 358.598,206.567 358.576,203.083 358.576 C 199.600 358.576,198.199 358.598,199.969 358.625 M165.458 358.791 C 167.406 358.818,170.594 358.818,172.542 358.791 C 174.490 358.765,172.896 358.743,169.000 358.743 C 165.104 358.743,163.510 358.765,165.458 358.791 M135.303 358.958 C 137.441 358.985,140.891 358.985,142.970 358.958 C 145.049 358.932,143.300 358.910,139.083 358.910 C 134.867 358.910,133.166 358.932,135.303 358.958 M99.458 359.125 C 101.590 359.151,105.077 359.151,107.208 359.125 C 109.340 359.098,107.596 359.077,103.333 359.077 C 99.071 359.077,97.327 359.098,99.458 359.125 " stroke="none" fill="#747474" fill-rule="evenodd"></path></g></svg>