<svg id="svg" version="1.1" xmlns="http://www.w3.org/2000/svg" xmlns:xlink="http://www.w3.org/1999/xlink" width="400" height="521.6484089723526" viewBox="0, 0, 400,521.6484089723526"><g id="svgg"><path id="path0" d="M2.391 260.869 L 2.391 518.696 200.000 518.696 L 397.609 518.696 397.554 260.924 L 397.500 3.152 199.946 3.098 L 2.391 3.043 2.391 260.869 M392.174 296.196 L 392.174 513.043 200.000 513.043 L 7.826 513.043 7.826 296.196 L 7.826 79.348 200.000 79.348 L 392.174 79.348 392.174 296.196 M65.352 130.054 L 65.502 135.326 73.338 145.109 C 77.648 150.489,83.923 158.315,87.283 162.500 C 90.642 166.685,98.136 176.027,103.936 183.261 C 109.736 190.495,118.482 201.402,123.372 207.500 C 128.262 213.598,136.224 223.527,141.066 229.565 C 145.907 235.603,153.400 244.946,157.716 250.326 C 162.033 255.707,170.152 265.832,175.759 272.826 C 181.366 279.821,188.282 288.443,191.129 291.986 C 193.975 295.529,196.304 298.522,196.304 298.637 C 196.304 298.752,195.351 299.970,194.185 301.343 C 191.864 304.078,172.967 326.551,170.000 330.105 C 166.679 334.084,164.015 337.254,151.196 352.490 C 148.087 356.185,144.712 360.201,143.696 361.416 C 140.192 365.604,129.697 378.099,123.696 385.228 C 116.935 393.260,113.066 397.863,107.718 404.239 C 106.515 405.674,104.502 408.071,103.245 409.565 C 101.988 411.060,98.127 415.652,94.665 419.770 C 91.202 423.889,87.583 428.193,86.623 429.336 C 85.662 430.478,83.565 432.978,81.962 434.891 C 80.359 436.804,78.059 439.543,76.851 440.978 C 66.362 453.437,64.325 455.903,64.160 456.343 C 64.056 456.621,63.900 458.934,63.813 461.484 L 63.655 466.121 78.404 465.987 C 86.515 465.913,113.598 465.756,138.587 465.639 C 163.576 465.521,212.489 465.281,247.283 465.107 C 282.076 464.933,312.710 464.788,315.358 464.786 L 320.173 464.783 320.317 463.207 C 321.836 446.494,324.473 427.817,328.045 408.478 C 328.166 407.821,328.751 404.592,329.344 401.304 C 329.937 398.016,331.053 392.098,331.825 388.152 C 333.706 378.531,335.287 370.008,335.308 369.375 C 335.325 368.894,329.237 366.996,327.574 366.963 C 327.314 366.958,326.841 367.845,325.866 370.163 C 317.864 389.206,315.245 394.582,310.907 400.870 C 300.648 415.738,286.445 423.317,265.066 425.331 C 258.597 425.940,250.700 425.993,183.076 425.877 L 115.826 425.761 121.311 419.130 C 127.714 411.390,130.484 408.045,134.812 402.826 C 136.547 400.734,142.494 393.543,148.027 386.848 C 153.560 380.152,158.947 373.647,159.998 372.391 C 161.922 370.091,175.056 354.223,178.905 349.546 C 181.561 346.320,203.577 319.714,209.021 313.152 C 229.684 288.246,236.110 280.375,236.006 280.102 C 235.941 279.933,215.958 254.871,191.599 224.408 C 152.098 175.010,128.618 145.639,127.982 144.832 C 127.549 144.282,128.575 144.261,164.517 144.101 C 189.681 143.989,203.976 143.836,210.652 143.608 C 230.895 142.915,243.904 143.267,254.348 144.791 C 289.761 149.960,306.334 168.436,310.548 207.446 L 310.683 208.696 315.119 208.696 L 319.554 208.696 319.451 208.098 C 319.395 207.769,319.199 205.543,319.016 203.152 C 318.341 194.301,317.631 185.611,315.553 160.761 C 314.774 151.435,313.938 141.359,313.695 138.370 C 313.453 135.380,313.110 131.205,312.932 129.092 C 312.754 126.978,312.609 125.144,312.609 125.016 C 312.609 124.850,276.798 124.783,188.906 124.783 L 65.203 124.783 65.352 130.054 " stroke="none" fill="#040404" fill-rule="evenodd"></path><path id="path1" d="M0.000 260.870 L 0.000 521.739 200.000 521.739 L 400.000 521.739 400.000 260.870 L 400.000 0.000 200.000 0.000 L 0.000 0.000 0.000 260.870 M397.772 260.924 L 397.826 518.913 200.054 518.859 L 2.283 518.804 2.227 261.087 C 2.197 119.342,2.218 3.247,2.275 3.098 C 2.357 2.880,42.025 2.837,200.048 2.880 L 397.717 2.935 397.772 260.924 M8.189 79.493 C 8.109 79.572,8.043 177.105,8.043 296.232 L 8.043 512.826 200.000 512.826 L 391.957 512.826 391.902 296.141 L 391.848 79.457 200.091 79.402 C 94.624 79.372,8.268 79.413,8.189 79.493 M312.717 124.837 C 312.822 125.138,314.782 148.558,316.197 166.413 C 316.377 168.685,316.622 171.668,316.742 173.043 C 317.113 177.309,318.663 195.915,319.123 201.630 C 319.363 204.620,319.616 207.481,319.685 207.989 L 319.809 208.913 315.160 208.913 L 310.510 208.913 310.242 206.467 C 305.811 166.041,286.936 147.516,246.739 144.143 C 237.853 143.397,226.562 143.295,211.522 143.824 C 204.936 144.055,190.864 144.207,165.162 144.325 C 144.866 144.418,128.219 144.535,128.169 144.585 C 128.102 144.652,200.076 234.822,214.220 252.391 C 225.806 266.783,236.314 280.101,236.262 280.326 C 236.200 280.589,230.541 287.493,217.717 302.950 C 212.933 308.717,209.443 312.933,198.488 326.182 C 196.998 327.983,194.398 331.120,192.710 333.152 C 191.021 335.185,187.217 339.783,184.255 343.370 C 178.302 350.581,171.014 359.395,167.813 363.255 C 160.348 372.255,150.424 384.251,145.878 389.767 C 144.259 391.731,142.344 394.030,141.622 394.876 C 140.900 395.721,139.678 397.196,138.906 398.152 C 138.134 399.109,136.769 400.773,135.871 401.850 C 134.974 402.928,131.730 406.841,128.662 410.546 C 125.595 414.251,121.747 418.897,120.110 420.870 C 118.473 422.842,116.941 424.726,116.705 425.054 L 116.275 425.652 179.061 425.707 C 260.676 425.777,258.936 425.794,267.174 424.872 C 285.516 422.819,298.358 416.436,307.803 404.680 C 313.414 397.698,317.023 390.880,323.986 374.113 C 326.749 367.460,327.097 366.738,327.545 366.745 C 328.060 366.752,335.428 368.617,335.593 368.782 C 335.664 368.852,334.863 373.337,333.814 378.748 C 332.765 384.160,331.482 390.886,330.963 393.696 C 330.444 396.505,329.377 402.277,328.592 406.522 C 325.685 422.249,322.612 442.352,321.533 452.717 C 321.408 453.913,321.105 457.090,320.858 459.777 C 320.612 462.464,320.359 464.714,320.296 464.777 C 320.141 464.933,316.718 464.959,263.152 465.216 C 217.573 465.435,171.524 465.677,99.348 466.077 C 79.799 466.185,63.725 466.197,63.628 466.102 C 63.532 466.008,63.540 463.732,63.646 461.044 L 63.839 456.158 68.484 450.633 C 73.924 444.162,76.850 440.682,79.934 437.010 C 84.754 431.271,86.913 428.702,89.019 426.196 C 90.225 424.761,94.089 420.163,97.605 415.978 C 101.121 411.793,105.025 407.147,106.282 405.652 C 111.057 399.970,113.037 397.613,115.777 394.348 C 118.730 390.829,128.725 378.942,132.490 374.471 C 133.691 373.045,135.702 370.648,136.959 369.145 C 138.215 367.643,140.294 365.166,141.578 363.641 C 142.862 362.117,144.921 359.671,146.152 358.207 C 147.383 356.742,151.223 352.175,154.685 348.059 C 158.146 343.942,162.006 339.344,163.263 337.841 C 164.520 336.338,166.577 333.886,167.835 332.391 C 169.092 330.897,171.150 328.451,172.406 326.957 C 173.662 325.462,178.795 319.357,183.813 313.389 C 194.496 300.683,196.087 298.765,196.087 298.596 C 196.087 298.526,191.557 292.822,186.020 285.920 C 164.175 258.686,159.547 252.916,149.891 240.870 C 144.381 233.995,136.260 223.870,131.846 218.370 C 111.402 192.897,88.721 164.611,75.542 148.152 L 65.272 135.326 65.117 129.946 L 64.961 124.565 188.792 124.565 C 287.661 124.565,312.641 124.620,312.717 124.837 " stroke="none" fill="#fbfbfb" fill-rule="evenodd"></path><path id="path2" d="M2.282 260.870 C 2.282 402.614,2.307 460.601,2.337 389.728 C 2.367 318.856,2.367 202.883,2.337 132.011 C 2.307 61.139,2.282 119.125,2.282 260.870 M65.268 133.478 C 65.268 133.897,65.313 134.068,65.367 133.859 C 65.422 133.649,65.422 133.307,65.367 133.098 C 65.313 132.889,65.268 133.060,65.268 133.478 M224.402 143.421 C 224.970 143.465,225.899 143.465,226.467 143.421 C 227.035 143.376,226.571 143.339,225.435 143.339 C 224.299 143.339,223.834 143.376,224.402 143.421 M229.845 143.422 C 230.537 143.465,231.613 143.465,232.236 143.421 C 232.860 143.377,232.293 143.342,230.978 143.342 C 229.663 143.343,229.153 143.378,229.845 143.422 M161.564 144.293 C 162.843 144.331,164.995 144.331,166.347 144.293 C 167.698 144.255,166.652 144.223,164.022 144.223 C 161.391 144.223,160.285 144.254,161.564 144.293 M304.737 464.944 C 305.489 464.986,306.663 464.986,307.345 464.943 C 308.028 464.900,307.413 464.865,305.978 464.866 C 304.543 464.866,303.985 464.901,304.737 464.944 M262.880 465.160 C 263.448 465.205,264.378 465.205,264.946 465.160 C 265.514 465.115,265.049 465.078,263.913 465.078 C 262.777 465.078,262.313 465.115,262.880 465.160 M220.598 465.378 C 221.345 465.421,222.568 465.421,223.315 465.378 C 224.063 465.336,223.451 465.301,221.957 465.301 C 220.462 465.301,219.851 465.336,220.598 465.378 M179.511 465.596 C 180.258 465.638,181.481 465.638,182.228 465.596 C 182.976 465.553,182.364 465.519,180.870 465.519 C 179.375 465.519,178.764 465.553,179.511 465.596 M138.207 465.813 C 138.954 465.856,140.177 465.856,140.924 465.813 C 141.671 465.771,141.060 465.736,139.565 465.736 C 138.071 465.736,137.459 465.771,138.207 465.813 M95.281 466.031 C 96.093 466.073,97.365 466.073,98.107 466.030 C 98.849 465.988,98.185 465.954,96.630 465.954 C 95.076 465.954,94.469 465.989,95.281 466.031 " stroke="none" fill="#7c7c7c" fill-rule="evenodd"></path><path id="path3" d="M2.316 2.989 C 2.261 3.079,91.179 3.128,199.911 3.098 L 397.607 3.043 397.663 37.174 L 397.719 71.304 397.718 37.120 L 397.717 2.935 200.067 2.880 C 91.360 2.850,2.372 2.899,2.316 2.989 M65.078 127.391 C 65.078 128.527,65.115 128.992,65.160 128.424 C 65.205 127.856,65.205 126.927,65.160 126.359 C 65.115 125.791,65.078 126.255,65.078 127.391 M65.268 134.783 C 65.268 135.201,65.313 135.372,65.367 135.163 C 65.422 134.954,65.422 134.611,65.367 134.402 C 65.313 134.193,65.268 134.364,65.268 134.783 M314.181 142.826 C 314.181 143.245,314.226 143.416,314.280 143.207 C 314.335 142.997,314.335 142.655,314.280 142.446 C 314.226 142.236,314.181 142.408,314.181 142.826 M227.663 143.411 C 227.872 143.465,228.215 143.465,228.424 143.411 C 228.633 143.356,228.462 143.311,228.043 143.311 C 227.625 143.311,227.454 143.356,227.663 143.411 M215.605 143.639 C 216.237 143.683,217.215 143.682,217.779 143.638 C 218.343 143.593,217.826 143.557,216.630 143.558 C 215.435 143.558,214.973 143.595,215.605 143.639 M237.767 143.635 C 238.153 143.683,238.838 143.684,239.289 143.637 C 239.740 143.590,239.424 143.551,238.587 143.550 C 237.750 143.549,237.381 143.587,237.767 143.635 M208.315 143.855 C 208.883 143.900,209.813 143.900,210.380 143.855 C 210.948 143.811,210.484 143.774,209.348 143.774 C 208.212 143.774,207.747 143.811,208.315 143.855 M242.337 143.849 C 242.606 143.901,243.046 143.901,243.315 143.849 C 243.584 143.797,243.364 143.755,242.826 143.755 C 242.288 143.755,242.068 143.797,242.337 143.849 M200.815 144.073 C 201.443 144.117,202.470 144.117,203.098 144.073 C 203.726 144.029,203.212 143.993,201.957 143.993 C 200.701 143.993,200.187 144.029,200.815 144.073 M245.600 144.067 C 245.871 144.119,246.262 144.117,246.470 144.062 C 246.678 144.008,246.457 143.965,245.978 143.968 C 245.500 143.970,245.330 144.015,245.600 144.067 M175.179 144.293 C 178.804 144.327,184.674 144.327,188.222 144.293 C 191.771 144.260,188.804 144.232,181.630 144.232 C 174.457 144.232,171.553 144.260,175.179 144.293 M248.098 144.280 C 248.307 144.335,248.649 144.335,248.859 144.280 C 249.068 144.226,248.897 144.181,248.478 144.181 C 248.060 144.181,247.889 144.226,248.098 144.280 M130.502 144.510 C 132.033 144.548,134.479 144.548,135.937 144.510 C 137.394 144.473,136.141 144.442,133.152 144.442 C 130.163 144.442,128.970 144.473,130.502 144.510 M314.616 148.261 C 314.616 148.679,314.660 148.851,314.715 148.641 C 314.770 148.432,314.770 148.090,314.715 147.880 C 314.660 147.671,314.616 147.842,314.616 148.261 M314.833 150.870 C 314.833 151.288,314.878 151.459,314.932 151.250 C 314.987 151.041,314.987 150.698,314.932 150.489 C 314.878 150.280,314.833 150.451,314.833 150.870 M315.050 153.478 C 315.050 153.897,315.095 154.068,315.150 153.859 C 315.205 153.649,315.205 153.307,315.150 153.098 C 315.095 152.889,315.050 153.060,315.050 153.478 M315.268 156.304 C 315.268 156.723,315.313 156.894,315.367 156.685 C 315.422 156.476,315.422 156.133,315.367 155.924 C 315.313 155.715,315.268 155.886,315.268 156.304 M315.490 158.804 C 315.492 159.283,315.537 159.453,315.589 159.182 C 315.641 158.912,315.639 158.521,315.584 158.313 C 315.530 158.105,315.487 158.326,315.490 158.804 M315.703 161.522 C 315.703 161.940,315.747 162.111,315.802 161.902 C 315.857 161.693,315.857 161.351,315.802 161.141 C 315.747 160.932,315.703 161.103,315.703 161.522 M292.826 162.242 C 292.826 162.279,293.144 162.597,293.533 162.948 L 294.239 163.587 293.601 162.880 C 293.005 162.222,292.826 162.074,292.826 162.242 M315.920 164.348 C 315.920 164.766,315.965 164.938,316.019 164.728 C 316.074 164.519,316.074 164.177,316.019 163.967 C 315.965 163.758,315.920 163.929,315.920 164.348 M316.355 169.565 C 316.355 169.984,316.400 170.155,316.454 169.946 C 316.509 169.736,316.509 169.394,316.454 169.185 C 316.400 168.976,316.355 169.147,316.355 169.565 M316.790 174.783 C 316.790 175.201,316.834 175.372,316.889 175.163 C 316.944 174.954,316.944 174.611,316.889 174.402 C 316.834 174.193,316.790 174.364,316.790 174.783 M319.181 203.478 C 319.181 203.897,319.226 204.068,319.280 203.859 C 319.335 203.649,319.335 203.307,319.280 203.098 C 319.226 202.889,319.181 203.060,319.181 203.478 M303.906 409.076 L 302.717 410.326 303.967 409.138 C 304.655 408.484,305.217 407.922,305.217 407.888 C 305.217 407.727,305.010 407.915,303.906 409.076 M116.348 425.261 C 116.204 425.404,116.087 425.600,116.087 425.696 C 116.087 425.791,144.383 425.845,178.967 425.816 L 241.848 425.762 179.050 425.707 C 123.290 425.658,116.282 425.615,116.522 425.326 C 116.845 424.937,116.718 424.890,116.348 425.261 M265.272 425.150 C 265.481 425.205,265.823 425.205,266.033 425.150 C 266.242 425.095,266.071 425.050,265.652 425.050 C 265.234 425.050,265.063 425.095,265.272 425.150 M262.663 425.367 C 262.872 425.422,263.215 425.422,263.424 425.367 C 263.633 425.313,263.462 425.268,263.043 425.268 C 262.625 425.268,262.454 425.313,262.663 425.367 M259.188 425.591 C 259.518 425.641,260.007 425.639,260.275 425.588 C 260.542 425.536,260.272 425.495,259.674 425.497 C 259.076 425.499,258.857 425.541,259.188 425.591 M252.128 425.813 C 252.880 425.856,254.054 425.856,254.737 425.813 C 255.420 425.770,254.804 425.735,253.370 425.735 C 251.935 425.736,251.376 425.771,252.128 425.813 M63.765 458.261 C 63.765 459.038,63.805 459.356,63.853 458.967 C 63.901 458.579,63.901 457.943,63.853 457.554 C 63.805 457.166,63.765 457.484,63.765 458.261 M320.703 460.217 C 320.703 460.636,320.747 460.807,320.802 460.598 C 320.857 460.389,320.857 460.046,320.802 459.837 C 320.747 459.628,320.703 459.799,320.703 460.217 M320.485 462.609 C 320.485 463.027,320.530 463.198,320.585 462.989 C 320.639 462.780,320.639 462.438,320.585 462.228 C 320.530 462.019,320.485 462.190,320.485 462.609 M63.550 464.239 C 63.551 465.076,63.590 465.392,63.637 464.941 C 63.684 464.490,63.683 463.805,63.635 463.419 C 63.587 463.033,63.549 463.402,63.550 464.239 M311.141 464.945 C 312.666 464.982,315.160 464.982,316.685 464.945 C 318.209 464.908,316.962 464.877,313.913 464.877 C 310.864 464.877,309.617 464.908,311.141 464.945 M269.851 465.163 C 272.101 465.198,275.720 465.198,277.895 465.163 C 280.069 465.127,278.228 465.098,273.804 465.098 C 269.380 465.098,267.602 465.127,269.851 465.163 M227.663 465.380 C 229.427 465.417,232.313 465.417,234.076 465.380 C 235.840 465.343,234.397 465.314,230.870 465.314 C 227.342 465.314,225.899 465.343,227.663 465.380 M187.446 465.598 C 189.688 465.633,193.356 465.633,195.598 465.598 C 197.840 465.562,196.005 465.533,191.522 465.533 C 187.038 465.533,185.204 465.562,187.446 465.598 M145.707 465.815 C 147.709 465.851,150.986 465.851,152.989 465.815 C 154.992 465.779,153.353 465.750,149.348 465.750 C 145.342 465.750,143.704 465.779,145.707 465.815 M63.667 466.145 C 63.759 466.237,66.224 466.286,69.145 466.254 L 74.457 466.195 68.978 466.087 C 65.965 466.027,63.575 466.053,63.667 466.145 M103.750 466.032 C 106.231 466.067,110.291 466.067,112.772 466.032 C 115.253 465.997,113.223 465.969,108.261 465.969 C 103.299 465.969,101.269 465.997,103.750 466.032 M103.967 512.989 C 156.785 513.019,243.215 513.019,296.033 512.989 C 348.851 512.959,305.636 512.934,200.000 512.934 C 94.364 512.934,51.149 512.959,103.967 512.989 M2.359 518.750 C 2.449 518.840,91.490 518.889,200.228 518.859 L 397.935 518.804 200.065 518.696 C 91.237 518.636,2.269 518.660,2.359 518.750 " stroke="none" fill="#9c9c9c" fill-rule="evenodd"></path><path id="path4" d="M397.717 295.000 C 397.717 417.973,397.742 468.280,397.772 406.793 C 397.802 345.307,397.802 244.693,397.772 183.207 C 397.742 121.720,397.717 172.027,397.717 295.000 M7.934 296.196 C 7.934 415.522,7.959 464.304,7.989 404.602 C 8.019 344.899,8.019 247.268,7.989 187.645 C 7.959 128.022,7.934 176.870,7.934 296.196 M392.065 296.196 C 392.065 415.522,392.089 464.304,392.120 404.602 C 392.150 344.899,392.150 247.268,392.120 187.645 C 392.089 128.022,392.065 176.870,392.065 296.196 M127.011 124.728 C 161.057 124.759,216.769 124.759,250.815 124.728 C 284.861 124.698,257.005 124.673,188.913 124.673 C 120.821 124.673,92.965 124.698,127.011 124.728 M312.877 128.478 C 312.877 128.897,312.921 129.068,312.976 128.859 C 313.031 128.649,313.031 128.307,312.976 128.098 C 312.921 127.889,312.877 128.060,312.877 128.478 M65.297 130.761 C 65.297 131.957,65.334 132.418,65.378 131.786 C 65.422 131.154,65.422 130.176,65.377 129.612 C 65.332 129.048,65.296 129.565,65.297 130.761 M313.311 133.913 C 313.311 134.332,313.356 134.503,313.411 134.293 C 313.465 134.084,313.465 133.742,313.411 133.533 C 313.356 133.323,313.311 133.495,313.311 133.913 M313.746 139.130 C 313.746 139.549,313.791 139.720,313.846 139.511 C 313.900 139.302,313.900 138.959,313.846 138.750 C 313.791 138.541,313.746 138.712,313.746 139.130 M219.411 143.422 C 220.223 143.464,221.495 143.464,222.237 143.422 C 222.980 143.379,222.315 143.345,220.761 143.345 C 219.207 143.346,218.599 143.380,219.411 143.422 M234.293 143.421 C 234.921 143.465,235.948 143.465,236.576 143.421 C 237.204 143.377,236.690 143.341,235.435 143.341 C 234.179 143.341,233.666 143.377,234.293 143.421 M211.245 143.635 C 211.631 143.683,212.316 143.684,212.767 143.637 C 213.218 143.590,212.902 143.551,212.065 143.550 C 211.228 143.549,210.859 143.587,211.245 143.635 M241.035 143.632 C 241.306 143.684,241.697 143.682,241.905 143.628 C 242.113 143.573,241.891 143.531,241.413 143.533 C 240.935 143.535,240.765 143.580,241.035 143.632 M203.864 143.855 C 204.376 143.901,205.158 143.900,205.604 143.854 C 206.049 143.807,205.630 143.769,204.674 143.770 C 203.717 143.771,203.353 143.809,203.864 143.855 M244.620 143.846 C 244.829 143.900,245.171 143.900,245.380 143.846 C 245.590 143.791,245.418 143.746,245.000 143.746 C 244.582 143.746,244.410 143.791,244.620 143.846 M194.402 144.074 C 195.209 144.116,196.530 144.116,197.337 144.074 C 198.144 144.032,197.484 143.998,195.870 143.998 C 194.255 143.998,193.595 144.032,194.402 144.074 M314.181 144.565 C 314.181 144.984,314.226 145.155,314.280 144.946 C 314.335 144.736,314.335 144.394,314.280 144.185 C 314.226 143.976,314.181 144.147,314.181 144.565 M142.244 144.293 C 145.450 144.327,150.635 144.327,153.765 144.293 C 156.895 144.259,154.272 144.232,147.935 144.232 C 141.598 144.232,139.037 144.259,142.244 144.293 M292.391 161.630 C 293.162 162.408,293.841 163.043,293.900 163.043 C 293.960 163.043,293.379 162.408,292.609 161.630 C 291.838 160.853,291.159 160.217,291.100 160.217 C 291.040 160.217,291.621 160.853,292.391 161.630 M318.311 194.348 C 318.311 194.766,318.356 194.938,318.411 194.728 C 318.465 194.519,318.465 194.177,318.411 193.967 C 318.356 193.758,318.311 193.929,318.311 194.348 M318.746 199.565 C 318.746 199.984,318.791 200.155,318.846 199.946 C 318.900 199.736,318.900 199.394,318.846 199.185 C 318.791 198.976,318.746 199.147,318.746 199.565 M318.963 202.391 C 318.963 202.810,319.008 202.981,319.063 202.772 C 319.118 202.563,319.118 202.220,319.063 202.011 C 319.008 201.802,318.963 201.973,318.963 202.391 M319.181 205.217 C 319.181 205.636,319.226 205.807,319.280 205.598 C 319.335 205.389,319.335 205.046,319.280 204.837 C 319.226 204.628,319.181 204.799,319.181 205.217 M319.398 207.609 C 319.398 208.027,319.443 208.198,319.498 207.989 C 319.552 207.780,319.552 207.438,319.498 207.228 C 319.443 207.019,319.398 207.190,319.398 207.609 M310.523 208.261 L 310.543 208.804 315.000 208.811 L 319.457 208.818 315.068 208.752 C 310.725 208.688,310.679 208.682,310.591 208.202 C 310.515 207.788,310.505 207.797,310.523 208.261 M261.470 425.589 C 261.740 425.641,262.132 425.639,262.339 425.584 C 262.547 425.530,262.326 425.487,261.848 425.490 C 261.370 425.492,261.200 425.537,261.470 425.589 M257.446 425.808 C 257.774 425.858,258.313 425.858,258.641 425.808 C 258.970 425.758,258.701 425.717,258.043 425.717 C 257.386 425.717,257.117 425.758,257.446 425.808 M242.446 426.032 C 244.209 426.069,247.095 426.069,248.859 426.032 C 250.622 425.996,249.179 425.966,245.652 425.966 C 242.125 425.966,240.682 425.996,242.446 426.032 M63.755 461.087 C 63.755 461.625,63.797 461.845,63.849 461.576 C 63.901 461.307,63.901 460.867,63.849 460.598 C 63.797 460.329,63.755 460.549,63.755 461.087 M296.347 464.945 C 297.625 464.983,299.778 464.983,301.129 464.945 C 302.481 464.907,301.435 464.875,298.804 464.875 C 296.174 464.875,295.068 464.906,296.347 464.945 M251.373 465.163 C 253.383 465.199,256.611 465.199,258.546 465.163 C 260.482 465.127,258.837 465.097,254.891 465.097 C 250.946 465.097,249.362 465.127,251.373 465.163 M205.924 465.380 C 208.405 465.415,212.465 465.415,214.946 465.380 C 217.427 465.345,215.397 465.317,210.435 465.317 C 205.473 465.317,203.443 465.345,205.924 465.380 M167.446 465.597 C 169.448 465.633,172.726 465.633,174.728 465.597 C 176.731 465.562,175.092 465.532,171.087 465.532 C 167.082 465.532,165.443 465.562,167.446 465.597 M122.134 465.815 C 124.923 465.849,129.423 465.849,132.134 465.815 C 134.846 465.780,132.565 465.752,127.065 465.752 C 121.565 465.752,119.346 465.781,122.134 465.815 M80.721 466.032 C 83.210 466.067,87.221 466.067,89.634 466.032 C 92.047 465.997,90.011 465.969,85.109 465.969 C 80.207 465.969,78.232 465.998,80.721 466.032 " stroke="none" fill="#747474" fill-rule="evenodd"></path></g></svg>